<?xml version="1.0" standalone="no"?>
<!DOCTYPE svg PUBLIC "-//W3C//DTD SVG 1.1//EN" "http://www.w3.org/Graphics/SVG/1.1/DTD/svg11.dtd" >
<svg xmlns="http://www.w3.org/2000/svg">
<metadata>
Created by FontForge 20120731 at Sat Jan 14 16:38:26 2017
 By admin
</metadata>
<defs>
<font id="iconfont" horiz-adv-x="1024" >
  <font-face 
    font-family="iconfont"
    font-weight="500"
    font-stretch="normal"
    units-per-em="1024"
    panose-1="2 0 6 3 0 0 0 0 0 0"
    ascent="896"
    descent="-128"
    x-height="792"
    bbox="-3 -216 2570 896.143"
    underline-thickness="0"
    underline-position="0"
    unicode-range="U+0078-ECED"
  />
<missing-glyph 
 />
    <glyph glyph-name=".notdef" 
 />
    <glyph glyph-name=".notdef" 
 />
    <glyph glyph-name=".null" horiz-adv-x="0" 
 />
    <glyph glyph-name="nonmarkingreturn" horiz-adv-x="341" 
 />
    <glyph glyph-name="x" unicode="x" horiz-adv-x="1001" 
d="M281 543q-27 -1 -53 -1h-83q-18 0 -36.5 -6t-32.5 -18.5t-23 -32t-9 -45.5v-76h912v41q0 16 -0.5 30t-0.5 18q0 13 -5 29t-17 29.5t-31.5 22.5t-49.5 9h-133v-97h-438v97zM955 310v-52q0 -23 0.5 -52t0.5 -58t-10.5 -47.5t-26 -30t-33 -16t-31.5 -4.5q-14 -1 -29.5 -0.5
t-29.5 0.5h-32l-45 128h-439l-44 -128h-29h-34q-20 0 -45 1q-25 0 -41 9.5t-25.5 23t-13.5 29.5t-4 30v167h911zM163 247q-12 0 -21 -8.5t-9 -21.5t9 -21.5t21 -8.5q13 0 22 8.5t9 21.5t-9 21.5t-22 8.5zM316 123q-8 -26 -14 -48q-5 -19 -10.5 -37t-7.5 -25t-3 -15t1 -14.5
t9.5 -10.5t21.5 -4h37h67h81h80h64h36q23 0 34 12t2 38q-5 13 -9.5 30.5t-9.5 34.5q-5 19 -11 39h-368zM336 498v228q0 11 2.5 23t10 21.5t20.5 15.5t34 6h188q31 0 51.5 -14.5t20.5 -52.5v-227h-327z" />
    <glyph glyph-name="wifi" unicode="&#xe758;" horiz-adv-x="1000" 
d="M347 192l22 -19q29 35 70.5 55t89.5 20q86 0 147 -61l21 20q-70 70 -168 70q-54 0 -101 -22.5t-81 -62.5zM223 302l23 -20q52 58 123.5 91t152.5 33q75 0 143 -29t120 -82l21 22q-55 56 -129 87t-156 31q-87 0 -164.5 -35t-133.5 -98zM525 622q-129 0 -243.5 -52.5
t-197.5 -144.5l26 -23q78 89 187 140t232 51q112 0 213.5 -43t177.5 -119l21 20q-82 81 -189 126t-227 45zM531 130q-26 0 -44.5 -18.5t-18.5 -44.5t18.5 -45t44.5 -19t44.5 19t18.5 45t-18.5 44.5t-44.5 18.5z" />
    <glyph glyph-name="jianhao" unicode="&#xe692;" horiz-adv-x="1000" 
d="M284 296h187h24h40h15h196q8 0 14 6t6 14.5t-6 14t-14 5.5h-196h-15h-40h-24h-187q-8 0 -14 -5.5t-6 -14t6 -14.5t14 -6z" />
    <glyph glyph-name="gengduo" unicode="&#xe6e2;" 
d="M122 420q-49 0 -84 -34.5t-35 -83.5t35 -84t84 -35t83.5 35t34.5 84t-34.5 83.5t-83.5 34.5zM500 420q-49 0 -84 -34.5t-35 -83.5t35 -84t84 -35t84 35t35 84t-35 83.5t-84 34.5zM902 420q-49 0 -84 -34.5t-35 -83.5t35 -84t84 -35t83.5 35t34.5 84t-34.5 83.5
t-83.5 34.5z" />
    <glyph glyph-name="zongjiehuibao" unicode="&#xe619;" 
d="M690 299h-133q-8 0 -10 -3t-2 -11v-95q0 -9 3 -11.5t9 -2.5h133q8 0 10.5 2.5t2.5 11.5v95q0 9 -2.5 11.5t-10.5 2.5zM512 832q-91 0 -174 -35.5t-142.5 -95.5t-95 -143t-35.5 -174t35.5 -174t95 -143t142.5 -95.5t174 -35.5t174 35.5t143 95.5t95.5 143t35.5 174
t-35.5 174t-95.5 143t-143 95.5t-174 35.5zM250 563q18 26 35 50q16 23 29.5 39t25.5 24.5t24 8.5t24 -11q13 -11 13 -24.5t-18.5 -35t-46.5 -57.5q-27 -36 -27 -43t17.5 -7t23.5 0.5t10 4.5q11 14 19.5 23.5t13.5 12.5q10 6 21 6t23 -11q13 -12 13 -26.5t-16 -32.5
q-38 -43 -65 -78q-13 -17 -20.5 -27.5t-10.5 -13.5q-4 -7 -4 -11t9 -4q15 0 54 12q11 3 19 3q17 0 25 -11.5t8 -28t-15 -26.5q-14 -9 -58 -18q-45 -9 -99 -9q-24 0 -37.5 10t-13.5 27q0 13 8 29q3 4 10 15t19.5 29t22.5 32.5t18 24.5q4 5 -2 4q-17 -2 -36 -2q-53 0 -53 38
q0 30 37 84zM449 182q-7 -12 -53 -32q-23 -10 -44.5 -18.5t-43.5 -15.5q-42 -12 -62 -13q-9 0 -15.5 4t-10.5 10t-5.5 13t-1.5 15q0 29 39 38q42 11 78 24t67 29q15 8 27 8q15 0 24 -13.5t9 -26.5t-8 -22zM776 161q0 -32 -14 -45.5t-49 -13.5h-179q-34 0 -47.5 13.5
t-13.5 45.5v150q0 32 13.5 45.5t47.5 13.5h179q35 0 49 -14t14 -45v-150zM799.5 542q-9.5 -10 -26.5 -10h-102q-9 0 -9 -9v-38q0 -9 9 -9h84q17 0 27 -10t10 -27t-10 -26.5t-27 -9.5h-266q-18 0 -28 9.5t-10 26.5t10 27t28 10h90q9 0 9 9v38q0 9 -9 9h-104q-17 0 -27 10
t-10 26.5t10.5 26.5t26.5 10h104q9 0 9 9v35q0 17 10 26.5t26.5 9.5t27 -10t10.5 -26v-35q0 -9 9 -9h102q17 0 26.5 -10t9.5 -26.5t-9.5 -26.5z" />
    <glyph glyph-name="sousuo" unicode="&#xe62d;" 
d="M894 -7l-239 242q73 77 73 205t-86.5 217t-212.5 89t-215 -90t-89 -216q0 -127 88 -213.5t214 -86.5q115 0 188 57l241 -244q7 -6 16 -6t20 11q7 7 8 17.5t-6 17.5zM173 443.5q0 105.5 74 180t178.5 74.5t178.5 -74.5t74 -180t-74 -180t-178.5 -74.5t-178.5 74.5t-74 180
z" />
    <glyph glyph-name="fenlei" unicode="&#xe779;" 
d="M433 339h-334q-8 0 -13.5 6t-5.5 14v329q0 8 5.5 13.5t13.5 5.5h334q8 0 14 -5.5t6 -13.5v-329q0 -8 -6 -14t-14 -6zM119 378h295v290h-295v-290zM433 -109h-334q-8 0 -13.5 5.5t-5.5 13.5v329q0 8 5.5 13.5t13.5 5.5h334q8 0 14 -5.5t6 -13.5v-329q0 -8 -6 -13.5
t-14 -5.5zM119 -71h295v290h-295v-290zM876 339h-334q-8 0 -13.5 6t-5.5 14v329q0 8 5.5 13.5t13.5 5.5h334q8 0 14 -5.5t6 -13.5v-329q0 -8 -6 -14t-14 -6zM562 378h295v290h-295v-290zM698 -112q-80 0 -136.5 57t-56.5 136.5t56.5 136t136.5 56.5t136.5 -56.5t56.5 -136
t-56.5 -136.5t-136.5 -57zM698 236q-64 0 -109 -45.5t-45 -109t45 -109t109 -45.5t109 45.5t45 109t-45 109t-109 45.5zM909 -140q-8 0 -14 5l-85 82q-6 5 -6.5 13t5 14t13.5 6t14 -5l86 -82q6 -5 6 -13t-5 -14q-6 -6 -14 -6z" />
    <glyph glyph-name="rili" unicode="&#xe750;" 
d="M890 666h-43v13q0 29 -20.5 49.5t-49.5 20.5h-1q-29 0 -49.5 -20.5t-20.5 -49.5v-13h-387v13q0 29 -20.5 49.5t-49.5 20.5h-1q-29 0 -49.5 -20.5t-20.5 -49.5v-13h-43q-29 0 -49.5 -20.5t-20.5 -49.5v-671q0 -29 20.5 -50t49.5 -21h755q29 0 49.5 21t20.5 50v671
q0 29 -20.5 49.5t-49.5 20.5zM734 679q0 18 12 30t30 12h1q17 0 29.5 -12t12.5 -30v-125q0 -17 -12.5 -29.5t-29.5 -12.5h-1q-18 0 -30 12.5t-12 29.5v125zM206 679q0 18 12.5 30t29.5 12h1q18 0 30 -12t12 -30v-125q0 -17 -12 -29.5t-30 -12.5h-1q-17 0 -29.5 12.5
t-12.5 29.5v125zM890 -89h-755q-6 0 -10 4t-4 10v493h783v-493q0 -6 -4 -10t-10 -4zM224 318h129v-64h-129v64zM449 318h128v-64h-128v64zM673 318h126v-64h-126v64zM224 189h129v-63h-129v63zM449 189h128v-63h-128v63zM673 189h126v-63h-126v63zM224 63h129v-66h-129v66z
M449 63h128v-66h-128v66zM673 63h126v-66h-126v66z" />
    <glyph glyph-name="dingdan" unicode="&#xe69a;" 
d="M841 564l-175 176q-6 6 -14 6v1h-405q-29 0 -49.5 -20.5t-20.5 -49.5v-755q0 -28 20.5 -48.5t49.5 -20.5h531q29 0 49.5 20.5t20.5 48.5v623q2 10 -7 19zM653 634l83 -83h-66q-7 0 -12 5t-5 12v66zM728 -64h-431q-14 0 -24.5 10.5t-10.5 24.5v657q0 14 10.5 24.5
t24.5 10.5h273v-160q0 -15 10 -25t25 -10h158v-497q0 -14 -10 -24.5t-25 -10.5zM539 245l142 142l-39 38l-130 -130l-131 130l-38 -38l141 -142v-2h-140v-54h140v-46h-112v-55h112v-68h55v68h113v55h-113v46h141v54h-141v2z" />
    <glyph glyph-name="PK" unicode="&#xe73c;" 
d="M861 237v125l-67 67l67 67v125l-193 -192zM401 206h-1h-177v-207l62 63v33h116l55 55l-55 56v0zM381 142h-96v17h95l9 -9zM618 206l-77 -77v77h-63v-206l117 116l27 -26v-29h62v33v0l1 1l-56 55l56 56h-67zM876 812h-732q-60 0 -102 -42t-42 -102v-431h540l120 120
l-72 72l72 71l-120 120h-381l96 -97h227l23 -23l-23 -23h-323l96 -96l226 -1l24 -23l-24 -23h-384v334q0 20 13.5 33.5t33.5 13.5h732q20 0 34 -13.5t14 -33.5v-732q0 -20 -14 -34t-34 -14h-732q-20 0 -33.5 14t-13.5 34v204h-97v-204q0 -60 42 -102t102 -42h732
q60 0 102 42t42 102v732q0 60 -42 102t-102 42z" />
    <glyph glyph-name="renwuguanli" unicode="&#xe615;" 
d="M789 666h-553q-45 0 -77 -32t-32 -78v-497q0 -45 32 -77t77 -32h553q45 0 76 32t31 77v497q0 46 -31 78t-76 32v0v0zM245 262q-7 31 -18 62q75 101 121 248l53 -13q-20 -59 -46 -116v-394h-51v299q-39 -62 -59 -86zM427 473q0 9 -2 27q-2 17 -4 24q204 9 314 22l11 -51
q-64 -6 -134 -11v-154h154v-48h-154v-158h143v-47h-343v47h147v158h-158v48h158v150q-61 -2 -132 -7z" />
    <glyph glyph-name="weizhi" unicode="&#xe665;" 
d="M512 747q-91 0 -168 -45t-122 -122t-45 -168q0 -52 34.5 -128.5t84 -149t98.5 -136.5t83.5 -104.5t34.5 -39.5q14 15 36.5 41.5t80 100.5t101.5 140.5t80.5 145t36.5 130.5q0 91 -45 168t-122 122t-168 45zM512 272q-69 0 -118 49t-49 118.5t49 118.5t118 49t118 -49
t49 -118.5t-49 -118.5t-118 -49z" />
    <glyph glyph-name="pengyouquan" unicode="&#xe63a;" 
d="M708 419v319q-6 3 -18 8.5t-49 16t-75 15.5t-93 1t-107 -22zM738 231v494q8 -4 20.5 -11t47.5 -32t64.5 -55.5t60.5 -81t46 -107.5zM638 88l344 320q2 -4 5.5 -12t9.5 -37t5.5 -62.5t-13 -90t-37.5 -118.5h-314zM462 47h465q-2 -6 -7 -16.5t-25.5 -40t-47 -55t-74 -54.5
t-103.5 -47zM310 149v-300q5 -3 14.5 -8t41.5 -15.5t67.5 -15.5t91 -3t113.5 17zM41 133l236 209v-475q-6 2 -16 6.5t-39.5 24.5t-57 47t-62.5 77t-61 111zM35 166q-2 7 -5 19.5t-8.5 50.5t-5.5 74.5t10 86t31 91.5h324zM77 521q3 7 8.5 17.5t27.5 41t48.5 57t72 58
t97.5 51.5l221 -225h-475z" />
    <glyph glyph-name="jiantoushang" unicode="&#xe67d;" 
d="M546 403l-206 -206h116l90 89l89 -89h116l-205 206v0z" />
    <glyph glyph-name="jiantouxia" unicode="&#xe67e;" 
d="M546 197l205 206h-116l-89 -89l-90 89h-116l206 -206v0zM546 197z" />
    <glyph glyph-name="tianjia" unicode="&#xe732;" 
d="M283 -135v202h-200zM797 155v151h-100v-151h-151v-101h151v-138h100v138h138v101h-138zM647 4h-76q-26 0 -44 18.5t-18 44.5v75q0 27 18 45t44 18h76v76q0 26 18 44.5t44 18.5q6 0 13 -1v392q0 5 -4 8.5t-9 3.5h-589q-5 0 -8.5 -3.5t-3.5 -8.5v-630q0 3 1.5 3t5 -1.5
t5.5 -1.5h188q5 0 9 -4t4 -9v-189q0 -3 1.5 -6.5t1.5 -4.5t-3 -1h331q-5 12 -5 25v88zM168 662q0 6 4 10t10 4h469q6 0 10 -4t4 -10v-14q0 -6 -4 -10t-10 -4h-469q-6 0 -10 4t-4 10v14zM168 563q0 5 4 9.5t10 4.5h469q6 0 10 -4.5t4 -9.5v-15q0 -6 -4 -10t-10 -4h-469
q-6 0 -10 4t-4 10v15zM168 463q0 6 4 10t10 4h469q6 0 10 -4t4 -10v-14q0 -6 -4 -10t-10 -4h-469q-6 0 -10 4t-4 10v14zM452 350q0 -15 -8 -15h-268q-8 0 -8 15v14q0 14 8 14h268q8 0 8 -14v-14z" />
    <glyph glyph-name="jianyinghome" unicode="&#xe62f;" 
d="M905 -191h-262q-5 0 -8 3.5t-3 7.5v382h-240v-382q0 -4 -3 -7.5t-8 -3.5h-262q-4 0 -7.5 3.5t-3.5 7.5v469h-76q-7 0 -10 7t2 12l480 480q8 7 16 0l156 -156v104q0 5 3 8t8 3h174q5 0 8 -3t3 -8v-301l128 -127q5 -5 2 -12t-10 -7h-76v-469q0 -4 -3.5 -7.5t-7.5 -3.5v0z
M654 -169h240v469q0 5 3 8t8 3h61l-113 112q-3 4 -3 8v295h-153v-120q0 -8 -6.5 -10.5t-11.5 2.5l-167 167l-454 -454h61q5 0 8 -3t3 -8v-469h240v382q0 4 3.5 7.5t7.5 3.5h262q4 0 7.5 -3.5t3.5 -7.5v-382v0zM599 -191h-174q-5 0 -8 3t-3 8v349q0 5 3 8t8 3h174q5 0 8 -3
t3 -8v-349q0 -5 -3 -8t-8 -3v0zM435 -169h153v327h-153v-327v0zM599 -191h-174q-5 0 -8 3t-3 8v349q0 5 3 8t8 3h174q5 0 8 -3t3 -8v-349q0 -5 -3 -8t-8 -3v0zM435 -169h153v327h-153v-327v0z" />
    <glyph glyph-name="shezhi" unicode="&#xe630;" 
d="M565 712v-60v-27l26 -7q46 -12 87 -37l24 -14l20 20l42 42l76 -76l-44 -44l-19 -19l14 -24q22 -40 33 -85l7 -28h28h64v-107h-67h-27l-8 -26q-11 -43 -35 -81l-14 -24l20 -20l48 -49l-76 -76l-50 50l-19 20l-24 -14q-37 -21 -80 -32l-26 -7v-28v-72h-108v72v28l-27 7
q-42 11 -80 32l-23 14l-20 -20l-50 -50l-76 76l49 49l20 20l-15 24q-23 38 -35 81l-7 26h-28h-67v107h64h29l6 28q11 45 34 85l14 24l-20 19l-44 44l76 76l43 -42l20 -20l24 14q40 25 86 37l27 7v27v60h108zM510.5 138q66.5 0 114 47.5t47.5 114t-47.5 114t-114 47.5
t-114 -47.5t-47.5 -114t47.5 -114t114 -47.5zM600 748h-179v-96q-51 -13 -96 -40l-68 68l-127 -127l70 -69q-26 -44 -38 -95h-99v-179h102q14 -48 39 -90l-74 -74l127 -127l76 76q41 -24 88 -36v-107h179v107q48 12 89 36l75 -76l127 127l-74 74q26 42 39 90h103v179h-100
q-12 51 -37 95l69 69l-127 127l-68 -68q-45 27 -96 40v96v0zM511 174q-52 0 -89 37t-37 89t37 88.5t89 36.5t88.5 -36.5t36.5 -88.5t-36.5 -89t-88.5 -37v0z" />
    <glyph glyph-name="yuejie" unicode="&#xe6b9;" 
d="M275 109q35 -28 80 -28q36 0 57 17.5t21 47.5q0 65 -95 65h-28v36h27q83 0 83 62q0 57 -63 57q-37 0 -69 -24v41q34 20 80 20q44 0 70.5 -23.5t26.5 -60.5q0 -68 -69 -87v-1q38 -4 59.5 -26.5t21.5 -55.5q0 -47 -33.5 -75.5t-89.5 -28.5q-49 0 -79 18v46zM532 217
q0 91 30 138.5t88 47.5q110 0 110 -178q0 -87 -31 -133.5t-87 -46.5q-53 0 -81.5 44t-28.5 128zM576 219q0 -138 70 -138q69 0 69 140q0 145 -68 145q-71 0 -71 -147zM796 684q-12 0 -20.5 8.5t-8.5 20.5v6q0 12 -8.5 20.5t-20.5 8.5h-6q-12 0 -20.5 -8.5t-8.5 -20.5v-6
q0 -12 -8.5 -20.5t-20.5 -8.5h-326q-12 0 -20.5 8.5t-8.5 20.5v6q0 12 -8.5 20.5t-20.5 8.5h-6q-12 0 -20.5 -8.5t-8.5 -20.5v-6q0 -12 -8.5 -20.5t-20.5 -8.5h-134q-11 0 -20 -8.5t-9 -20.5v-773q0 -12 9 -20.5t20 -8.5h838q12 0 20.5 8.5t8.5 20.5v773q0 12 -8.5 20.5
t-20.5 8.5h-134zM895 -54q0 -12 -8.5 -21t-20.5 -9h-710q-12 0 -20.5 9t-8.5 21v645q0 12 8.5 20.5t20.5 8.5h70q12 0 20.5 -8.5t8.5 -20.5v-70q0 -12 8.5 -20.5t20.5 -8.5h6q12 0 20.5 8.5t8.5 20.5v70q0 12 8.5 20.5t20.5 8.5h326q12 0 20.5 -8.5t8.5 -20.5v-70
q0 -12 8.5 -20.5t20.5 -8.5h6q12 0 20.5 8.5t8.5 20.5v70q0 12 8.5 20.5t20.5 8.5h70q12 0 20.5 -8.5t8.5 -20.5v-645z" />
    <glyph glyph-name="zhoujie" unicode="&#xe6ba;" 
d="M624 376l-135 -331h-46l129 307h-173v39h225v-15zM797 684q-12 0 -20.5 8.5t-8.5 20.5v6q0 12 -8.5 20.5t-20.5 8.5h-6q-12 0 -20.5 -8.5t-8.5 -20.5v-6q0 -12 -8.5 -20.5t-20.5 -8.5h-326q-12 0 -20.5 8.5t-8.5 20.5v6q0 12 -8.5 20.5t-20.5 8.5h-6q-12 0 -20.5 -8.5
t-8.5 -20.5v-6q0 -12 -8.5 -20.5t-20.5 -8.5h-134q-12 0 -20.5 -8.5t-8.5 -20.5v-773q0 -12 8.5 -20.5t20.5 -8.5h837q12 0 20.5 8.5t8.5 20.5v773q0 12 -8.5 20.5t-20.5 8.5h-133zM895 -54q0 -12 -8.5 -21t-20.5 -9h-709q-12 0 -20.5 9t-8.5 21v645q0 12 8.5 20.5t20.5 8.5
h70q12 0 20.5 -8.5t8.5 -20.5v-70q0 -12 8.5 -20.5t20.5 -8.5h6q12 0 20.5 8.5t8.5 20.5v70q0 12 8.5 20.5t20.5 8.5h326q12 0 20.5 -8.5t8.5 -20.5v-70q0 -12 8.5 -20.5t20.5 -8.5h6q12 0 20.5 8.5t8.5 20.5v70q0 12 8.5 20.5t20.5 8.5h69q12 0 20.5 -8.5t8.5 -20.5v-645z
" />
    <glyph glyph-name="rijie" unicode="&#xe6bb;" 
d="M797 684q-12 0 -20.5 8.5t-8.5 20.5v6q0 12 -8.5 20.5t-20.5 8.5h-6q-12 0 -20.5 -8.5t-8.5 -20.5v-6q0 -12 -8.5 -20.5t-20.5 -8.5h-326q-12 0 -20.5 8.5t-8.5 20.5v6q0 12 -8.5 20.5t-20.5 8.5h-6q-12 0 -20.5 -8.5t-8.5 -20.5v-6q0 -12 -8.5 -20.5t-20.5 -8.5h-134
q-12 0 -20.5 -8.5t-8.5 -20.5v-773q0 -12 8.5 -20.5t20.5 -8.5h837q12 0 20.5 8.5t8.5 20.5v773q0 12 -8.5 20.5t-20.5 8.5h-133zM895 -54q0 -12 -8.5 -21t-20.5 -9h-709q-12 0 -20.5 9t-8.5 21v645q0 12 8.5 20.5t20.5 8.5h70q12 0 20.5 -8.5t8.5 -20.5v-70
q0 -12 8.5 -20.5t20.5 -8.5h6q12 0 20.5 8.5t8.5 20.5v70q0 12 8.5 20.5t20.5 8.5h326q12 0 20.5 -8.5t8.5 -20.5v-70q0 -12 8.5 -20.5t20.5 -8.5h6q12 0 20.5 8.5t8.5 20.5v70q0 12 8.5 20.5t20.5 8.5h69q12 0 20.5 -8.5t8.5 -20.5v-645zM612 41h-199v38h78v262l-80 -23v40
l123 36v-315h78v-38z" />
    <glyph glyph-name="04" unicode="&#xe6e9;" 
d="M512 747q-131 0 -224 -92.5t-93 -224.5q0 -60 33 -142t79.5 -155t93 -138t78.5 -103l33 -39q13 15 34.5 40.5t76 99.5t96 142t76 151.5t34.5 143.5q0 132 -93 224.5t-224 92.5zM225 430q0 119 84 203t203 84t203 -84t84 -203q0 -48 -24 -112.5t-56 -122t-76 -121.5
t-73 -102t-58 -73q-29 35 -58 73t-73 102t-76 121.5t-56 122t-24 112.5zM512 579q-62 0 -105.5 -43.5t-43.5 -105t43.5 -105.5t105.5 -44t105.5 44t43.5 105.5t-43.5 105t-105.5 43.5zM512 311q-49 0 -84 35t-35 84.5t35 84.5t84 35t84 -35t35 -84.5t-35 -84.5t-84 -35z" />
    <glyph glyph-name="paizhao" unicode="&#xe666;" 
d="M963 590h-185q-19 0 -38.5 19.5t-32.5 43.5t-32.5 43.5t-39.5 19.5h-266q-14 0 -28.5 -19.5t-25.5 -43.5t-30 -43.5t-39 -19.5h-185q-25 0 -43 -18.5t-18 -44.5v-548q0 -26 18 -44.5t43 -18.5h902q25 0 43 18.5t18 44.5v548q0 26 -18 44.5t-43 18.5zM512 21
q-102 0 -174 74t-72 179t72 179t174 74t174 -74t72 -179t-72 -179t-174 -74zM809 463q-13 0 -22 9.5t-9 22.5t9 22t22 9t22 -9t9 -22t-9 -22.5t-22 -9.5zM205 653q0 9 -6 15t-15 6h-61q-9 0 -15 -6t-6 -15v-21h103v21zM512 463q-76 0 -130 -55.5t-54 -134t54 -134t130 -55.5
t130 55.5t54 134t-54 134t-130 55.5z" />
    <glyph glyph-name="fenxiang" unicode="&#xe6b8;" 
d="M841 274q-44 0 -82 -19.5t-64 -53.5l-264 124q8 30 8 59t-8 59l264 124q26 -34 64 -53.5t82 -19.5q76 0 129.5 53.5t53.5 129t-53.5 129t-129.5 53.5t-129.5 -53.5t-53.5 -128.5q0 -20 6 -43l-264 -125q-31 44 -78.5 69t-102.5 25q-90 0 -154.5 -64t-64.5 -155t64.5 -155
t154.5 -64q55 0 102.5 25t78.5 69l264 -125q-6 -23 -6 -43q0 -75 53.5 -128.5t129.5 -53.5t129.5 53.5t53.5 129t-53.5 129t-129.5 53.5zM841.5 786q45.5 0 77.5 -32t32 -77.5t-32 -77.5t-77.5 -32t-78 32t-32.5 77.5t32.5 77.5t78 32zM219.5 238q-60.5 0 -103.5 43t-43 103
t43 103t103.5 43t103.5 -43t43 -103t-43 -103t-103.5 -43zM841.5 -18q-45.5 0 -78 32t-32.5 77.5t32.5 77.5t78 32t77.5 -32t32 -77.5t-32 -77.5t-77.5 -32z" />
    <glyph glyph-name="pinglun" unicode="&#xe6ad;" 
d="M537 383q-17 0 -29.5 -12.5t-12.5 -29.5t12.5 -29t29.5 -12t29 12t12 29t-12 29.5t-29 12.5zM355 383q-17 0 -29 -12.5t-12 -29.5t12 -29t29 -12t29 12t12 29t-12 29.5t-29 12.5zM826 663h-595q-34 0 -58 -24t-24 -58v-479q0 -34 24 -58.5t58 -24.5h33v-132l132 132h430
q34 0 58 24.5t24 58.5v479q0 34 -24 58t-58 24zM875 102q0 -21 -14.5 -35.5t-34.5 -14.5h-446l-33 -33l-50 -49v49v33h-66q-20 0 -34.5 14.5t-14.5 35.5v479q0 20 14.5 34.5t34.5 14.5h595q20 0 34.5 -14.5t14.5 -34.5v-479zM718.5 383q-17.5 0 -29.5 -12.5t-12 -29.5
t12 -29t29.5 -12t29.5 12t12 29t-12 29.5t-29.5 12.5z" />
    <glyph glyph-name="icon54" unicode="&#xe737;" 
d="M127 515l107 -550q9 -43 32.5 -69t59.5 -26h372q36 0 59.5 26t32.5 69l107 550h-770zM677 664l-49 66h-232l-49 -66h-282v-83h894v83h-282z" />
    <glyph glyph-name="shouji" unicode="&#xe689;" 
d="M694 803h-363q-39 0 -67.5 -28.5t-28.5 -67.5v-814q0 -39 28.5 -67.5t67.5 -28.5h363q39 0 67.5 28.5t28.5 67.5v814q0 39 -28.5 67.5t-67.5 28.5zM461 751h104q9 0 9 -9t-9 -9h-104q-9 0 -9 9t9 9zM512 -165q-14 0 -24 10t-10 24t10 24t24 10t24 -10t10 -24.5t-10 -24
t-24 -9.5zM718 -63h-413v762h413v-762z" />
    <glyph glyph-name="mima" unicode="&#xe600;" 
d="M206 322h612q31 0 53.5 -22t22.5 -54v-252q0 -31 -22.5 -53.5t-53.5 -22.5h-612q-31 0 -53.5 22.5t-22.5 53.5v252q0 32 22.5 54t53.5 22zM737 606v-104h67v158q0 37 -26 63.5t-64 26.5h-404q-38 0 -64 -26.5t-26 -63.5v-270h-68q-37 0 -63.5 -26.5t-26.5 -63.5v-360
q0 -37 26.5 -63.5t63.5 -26.5h720q37 0 63.5 26.5t26.5 63.5v360q0 37 -26.5 63.5t-63.5 26.5h-585v216q0 31 22.5 53.5t54.5 22.5h296q32 0 54.5 -22.5t22.5 -53.5zM467 165v-90q0 -18 13 -31.5t32 -13.5t32 13.5t13 31.5v90q0 19 -13 32t-32 13t-32 -13t-13 -32z" />
    <glyph glyph-name="refurbish" unicode="&#xe6ea;" 
d="M927 268v20q0 113 -55.5 209t-151 151.5t-208.5 55.5q-118 0 -218 -62q-25 -14 -25 -42q0 -20 14 -34t34 -14q15 0 27 9q77 47 168 47q87 0 160.5 -43t116.5 -116.5t43 -160.5q0 -10 -1 -20h-93l143 -205l143 205h-97zM707 24q-15 0 -27 -9q-77 -47 -168 -47
q-87 0 -160.5 43t-116.5 116.5t-43 160.5q0 10 1 20h93l-143 205l-143 -205h97v-20q0 -113 55.5 -209t151 -151.5t208.5 -55.5q118 0 218 62q25 14 25 42q0 20 -14 34t-34 14z" />
    <glyph glyph-name="zhuanzhengshenqing" unicode="&#xe709;" 
d="M944 491l-202 219q-8 8 -20 8h-330q-35 0 -59 -24.5t-24 -58.5v-92q19 -5 31 -19l1 -1l1 -1q16 -21 21 -27v140q0 12 8.5 20.5t20.5 8.5h317v-188q0 -5 3.5 -8.5t9.5 -3.5h173l2 -2v-497q0 -12 -8.5 -20.5t-20.5 -8.5h-476q-12 0 -20.5 8.5t-8.5 20.5v58q-16 -7 -32 -7
h-22v-51q0 -34 24 -58.5t59 -24.5h476q34 0 58.5 24.5t24.5 58.5v508q0 10 -7 18zM735 489v148l137 -148h-137zM331 52q5 0 10 2h2q4 1 7 3h0.5h0.5q13 7 17 20q1 2 1 6l-2 119h133q5 0 9 3q11 6 11 20q0 13 -12 25q-13 13 -187 240q-2 2 -4.5 5.5t-3.5 4.5q-8 10 -21.5 10
t-24.5 -11q-1 0 -1 -1l-200 -254q-8 -8 -8 -17q0 -18 22 -22l10 -1h118v-117q0 -18 12 -28q10 -8 24 -7h65h22v0zM244 89v133q0 7 -5.5 12.5t-12.5 5.5h-118l182 231q141 -184 181 -233h-122q-7 0 -12.5 -5.5t-5.5 -12.5v0l2 -132l-2 1h-87zM590 351h23v37h14v-37h26v-13
h-26v-26q15 3 30 5q-1 -7 -1 -14q-14 -2 -29 -4v-43h-14v41q-20 -3 -41 -7l-2 15q20 3 43 6v27h-39v13q10 21 19 49h-21v13h25q4 14 8 30l16 -3q-5 -14 -9 -27h41v-13h-45q-9 -25 -18 -49zM662 299l9 11q16 -10 31 -20l29 34h-65v13q4 12 7 25h-21v13h25q3 12 6 25h-23v13
h26q4 14 7 29h14q-3 -15 -6 -29h51v-13h-54q-3 -13 -7 -25h68v-13h-71q-4 -13 -7 -25h69v-13l-36 -41q11 -8 22 -15l-10 -13q-30 23 -64 44zM570 50h31v102h16v-102h49v129h-87v15h172v-15h-69v-50h63v-14h-63v-65h77v-15h-189v15z" />
    <glyph glyph-name="qiyeyewu" unicode="&#xe6ab;" 
d="M420 -44v-46h55v517h-246v-30h220v-37h-220v-450h57v46h134v0zM373 319h73v-73h-73v73zM373 193h73v-73h-73v73v0zM373 68h73v-73h-73v73v0zM259 319h73v-73h-73v73zM258 193h73v-73h-73v73zM258 -5v73h73v-73h-73zM420 -96v6h-134v-6h-137v-52h406v52h-135zM875 24v695
h-47v29h-267v-29h-37v-867h55v70h249v-70h47v172zM833 322h-119v119h119v-119zM712 469v119h119v-119h-119zM711 677h124v-44h-124v44zM687 322h-119v119h119v-119v0zM833 168h-119v119h119v-119zM687 168h-119v119h119v-119v0zM833 11h-119v119h119v-119zM687 11h-119v119
h119v-119v0zM566 469v119h119v-119h-119zM564 677h124v-44h-124v44v0z" />
    <glyph glyph-name="guanbiyuanjiajianxian" unicode="&#xe628;" 
d="M495 727h34v-410h-34v410zM683 658v-38q94 -47 152 -137.5t58 -199.5q0 -102 -50.5 -188.5t-137 -137t-188.5 -50.5t-188.5 50.5t-136.5 137t-50 188.5q0 106 54.5 194.5t144.5 137.5v38q-105 -50 -169 -149.5t-64 -220.5q0 -112 54.5 -206t149 -149t205.5 -55t205.5 55
t149.5 149t55 206q0 124 -67.5 225t-176.5 150z" />
    <glyph glyph-name="shijian" unicode="&#xe6bc;" 
d="M950 386q0 89 -35 170t-93.5 140t-139.5 93.5t-170 34.5t-170 -34.5t-140 -93.5t-93.5 -140t-34.5 -170t34.5 -170t93.5 -139.5t140 -93.5t170 -35q145 0 263 90q5 6 5 13q0 8 -5.5 13.5t-13.5 5.5t-14 -6v0q-105 -77 -235 -77q-107 0 -198.5 53t-144.5 144t-53 199
t53 199.5t144.5 144.5t199 53t199 -53t144.5 -144.5t53 -199.5q0 -100 -45 -185v0q-1 -4 -1 -6q0 -8 5.5 -13.5t13.5 -5.5q13 0 18 12v0q50 96 50 201zM507 620q0 9 -6 15t-15 6t-15 -6t-6 -15v-249v-4t2 -10t6 -12.5t12.5 -10t21.5 -4.5h225v0q9 0 15 6t6 14.5t-6 14.5
t-15 6h-225v249v0z" />
    <glyph glyph-name="shouc01" unicode="&#xe765;" 
d="M955 383l-316 46l-142 286l-158 -305q3 -4 11.5 -12t12.5 -12l134 256l120 -243l268 -39l-194 -189l46 -267l-240 126l-240 -126l46 267l-194 189l148 20l-28 28l-190 -25l229 -223l-54 -315l283 148l283 -148l-54 315z" />
    <glyph glyph-name="bangongyongpin" unicode="&#xe70a;" 
d="M148 246h-41v75h42v-74q5 4 10 6l2 9l21 63q6 18 17 34h-199v-255h79q13 102 69 142zM851 -116q24 7 54 -17.5t51 -68.5l56 24q-16 45 -13.5 83t23.5 51l-57 93h-156zM924 -49q10 4 19.5 0t14 -13.5t0.5 -19.5t-14 -14t-19.5 0t-14 13.5t-0.5 19.5t14 14zM664 752
q-12 29 -41 40.5t-57.5 -0.5t-40.5 -41t0 -58l119 -278h164zM1024 104v255h-561l-10 -32q15 -45 0 -91l-18 -57l-20 -36q5 -19 7 -39h602zM917 321v-75h-42v75h42zM533 186h-42v135h42v-135zM661 246h-42v75h42v-75zM789 186h-42v135h42v-135zM318 49v0q-40 55 -111 62
q-15 1 -31 0q-39 -5 -59.5 -36.5t-21 -74t4 -84.5t12.5 -71l8 -29q4 2 10 4.5t24.5 11.5t36 18.5t40 24t40 29t33.5 32.5t23.5 36t6 38t-15.5 39zM292 352q-65 6 -94 -147q-8 -45 -8 -61h19q73 -5 122 -57l37 69q72 151 15 175l135 408q6 18 -3 35.5t-27 23.5q-10 3 -20 2
q-30 -4 -39 -32z" />
    <glyph glyph-name="jiantouicon" unicode="&#xe6bd;" 
d="M115 356h794q22 0 37 -15.5t15 -37t-15 -36.5t-37 -15h-794q-22 0 -37 15t-15 36.5t15 37t37 15.5zM484.5 673.5q16.5 -16.5 19.5 -37t-9 -32.5l-323 -323q-15 -14 -45.5 -21t-48.5 8q-16 17 -15 37.5t14 33.5l338 345q12 12 32.5 9t37 -19.5zM115 356h794q22 0 37 -15.5
t15 -37t-15 -36.5t-37 -15h-794q-22 0 -37 15t-15 36.5t15 37t37 15.5zM415 -76l-338 344q-13 13 -14 33.5t15 38.5q18 14 48.5 7t45.5 -21l323 -323q12 -12 9 -32.5t-19.5 -37t-37 -19.5t-32.5 10z" />
    <glyph glyph-name="dianhua" unicode="&#xe69d;" horiz-adv-x="1035" 
d="M753 -212q-80 0 -211 81q-125 77 -244 193v0l-24 24q-116 119 -193 244q-81 131 -81 211q0 78 72 175q14 18 30 36t45 39t52 21q30 0 72 -44q31 -32 67 -83q34 -49 57 -92q27 -51 27 -76q0 -33 -34 -56q-15 -10 -49 -25q-30 -13 -37 -19q6 -24 42 -77q43 -63 93 -115
q52 -50 115 -93q53 -36 77 -42q6 7 19 37q15 34 25 49q23 34 56 34q25 0 76 -27q43 -23 92 -57q51 -36 83 -67q44 -42 44 -72q0 -23 -21 -52t-39 -45t-36 -30q-97 -72 -175 -72v0zM341 105q114 -111 232 -185q117 -72 180 -72q57 0 135 59q34 24 56 50q16 18 19 29
q-5 11 -32 36t-74 58q-43 30 -81 50q-33 17 -47 19q-4 -2 -9.5 -11.5t-16.5 -34.5q-13 -31 -21 -43q-20 -31 -49 -31h-1q-38 1 -114 53q-68 46 -123 100l-1 1q-54 55 -100 123q-52 76 -53 114q-1 29 30 50q13 8 44 21q25 11 34.5 16.5t11.5 9.5q-2 14 -19 47q-20 38 -50 81
q-33 47 -58 74t-36 32q-11 -3 -29 -19q-26 -22 -50 -56q-59 -78 -59 -135q0 -63 72 -180q74 -118 185 -232l24 -24v0zM341 105zM700 322q-8 0 -14 5t-7 13q-9 48 -51 75q-42 28 -94 19q-9 -2 -16.5 3.5t-9 14.5t4 16.5t14.5 9.5q69 12 126 -26t69 -104q2 -9 -3.5 -16.5
t-14.5 -9.5h-4zM834 379q-8 0 -14.5 5t-7.5 13q-16 93 -97 146q-82 54 -181 36q-9 -1 -16.5 4t-9 14t4 16.5t14.5 9.5q116 20 212 -43q97 -64 117 -175q1 -9 -4 -16.5t-14 -9.5h-4zM1012 395q-8 0 -14.5 5.5t-7.5 13.5q-13 76 -56 140.5t-109 108.5q-67 44 -146.5 60
t-160.5 1q-9 -1 -16.5 4t-9 14t3.5 16.5t14 9.5q90 16 177.5 -2t161.5 -66q74 -50 122 -121.5t63 -157.5q1 -9 -4 -16.5t-14 -8.5q-2 -1 -4 -1z" />
    <glyph glyph-name="qingjia" unicode="&#xe70b;" 
d="M845 606l-126 112q-9 9 -21 9h-499q-12 0 -20.5 -9.5t-8.5 -22.5v-719q0 -14 9 -23l88 -80q18 -14 41 0l90 81l94 -85q14 -8 21 -7.5t19 7.5l94 85l94 -85q12 -9 20 -9t20 9l85 77q9 10 9 23v615q0 13 -9 22zM808 -33l-58 -54l-98 79q-22 18 -42 0l-98 -79l-98 79
q-12 9 -21 9t-21 -9l-91 -79l-65 62v706h472v-85q0 -8 5.5 -14t13.5 -6h101v-609zM703 230q-18 1 -42 3q-2 -115 -38 -133v78q10 1 10 11v12q0 5 -3.5 8t-8.5 3h-25q-5 0 -8.5 -3t-3.5 -8v-12q0 -10 10 -11v-78q-36 18 -38 133l-42 -3q-20 0 -34.5 -14.5t-14.5 -34.5v-61
q0 -18 43.5 -28t101.5 -10t100 10t42 28v61q0 20 -14.5 34.5t-34.5 14.5zM608.5 230q28.5 0 57.5 31t29 73q0 43 -25.5 73.5t-61 30.5t-61 -30.5t-25.5 -73.5q0 -42 29 -73t57.5 -31zM544 357q3 6 7 11q5 7 7 9t7.5 1t11.5 -10q10 -12 39.5 -20t59.5 -9v-5q0 -32 -23 -58.5
t-44.5 -26.5t-44.5 26.5t-23 58.5q0 12 3 23zM408 286l-30 22l62 62v101h39v-114zM600 480q-31 41 -79 59.5t-100 7.5q-72 -16 -112 -77.5t-24 -133.5q11 -54 51 -91.5t93 -46.5l28 39q-47 1 -84 31t-48 77q-11 55 19.5 102t85.5 59q36 8 70 -3.5t58 -37.5z" />
    <glyph glyph-name="bianji" unicode="&#xe738;" 
d="M652 750l-430 -431l225 -225l431 430zM96 -32l270 72l-194 193zM448 -160h128v128h-128v-128zM640 -160h128v128h-128v-128zM832 -32v-128h128v128h-128z" />
    <glyph glyph-name="youjiantou" unicode="&#xe6a3;" 
d="M655 301h-0.5h-0.5l-203 204q-8 7 -18 7t-17 -7t-7 -17.5t7 -17.5l186 -187l-186 -186q-7 -8 -7 -18t7 -17.5t17 -7.5t18 8l203 203l0.5 0.5l0.5 0.5q7 7 7 17.5t-7 17.5z" />
    <glyph glyph-name="toupiao" unicode="&#xe73d;" 
d="M150 616h624v-126h-624v126zM150 360h724v-126h-724v126zM150 110h333v-126h-333v126z" />
    <glyph glyph-name="danyuanjia" unicode="&#xe62a;" 
d="M512 748q-91 0 -174 -35.5t-143 -95.5t-95.5 -143t-35.5 -174t35.5 -173.5t95.5 -142.5t143 -95.5t174 -35.5t173.5 35.5t142.5 95.5t95.5 142.5t35.5 173.5t-35.5 174t-95.5 143t-142.5 95.5t-173.5 35.5zM928 300.5q0 -84.5 -32 -162.5q-32 -75 -89.5 -132.5
t-132.5 -89.5q-78 -32 -162.5 -32t-161.5 32q-75 32 -133 89.5t-89 132.5q-33 78 -33 162.5t33 162.5q31 74 89 132t133 89q77 33 161.5 33t162.5 -33q75 -31 132.5 -89t89.5 -132q32 -78 32 -162.5zM526 648h-30v-332h-331v-31h331v-332h30v332h333v31h-333v332z" />
    <glyph glyph-name="xuanze" unicode="&#xe684;" 
d="M490.5 769q-99.5 0 -190.5 -38.5t-156.5 -104.5t-104.5 -157t-39 -190.5t39 -190.5t104.5 -156.5t156.5 -104.5t190.5 -39t190.5 39t157 104.5t104.5 156.5t38.5 190.5t-38.5 190.5t-104.5 157t-157 104.5t-190.5 38.5zM760 493l-254 -441l-0.5 -1t-0.5 -2
q-14 -24 -43 -21q-9 1 -16 6q-1 0 -2.5 1.5l-1.5 1.5l-163 125q-15 9 -19.5 26t4 32t25.5 19.5t33 -3.5l133 -102l231 401q9 16 26 20.5t32.5 -4.5t20 -26t-4.5 -32z" />
    <glyph glyph-name="yewuguanli" unicode="&#xe616;" 
d="M515 692q-113 0 -193.5 -80.5t-80.5 -193.5q0 -79 41.5 -146t112.5 -101v-119q0 -24 13.5 -44.5t35.5 -30.5v-25q0 -22 15 -37t37 -15h40q21 0 36.5 15t15.5 37v25q22 10 35.5 30.5t13.5 44.5v119q70 35 112 101.5t42 145.5q-1 113 -81.5 193.5t-194.5 80.5v0zM535 -61
h-40q-5 0 -9 4t-4 9v18h66v-18q0 -5 -4 -9t-9 -4v0zM553 9h-76q-18 0 -30.5 12.5t-12.5 30.5v47h163v-47q0 -18 -13 -30.5t-31 -12.5v0zM515 292l-41 76h82zM608 201l-11 -5v-58h-62v114q3 2 7 9l57 104q8 13 -1 27q-9 15 -26 15h-114q-18 0 -27 -15q-8 -13 0 -27l57 -105
q4 -6 8 -9v-113h-62v58l-12 5q-65 28 -103.5 87t-38.5 130q0 97 69 166t166.5 69t166.5 -69t69 -166q0 -71 -39 -129.5t-104 -87.5v0zM47 473h103v-40h-103v40zM254 662l-73 73l28 28l73 -73zM742 690l73 73l28 -28l-73 -73zM873 473h103v-40h-103v40zM492 868h40v-103h-40
v103zM492 868z" />
    <glyph glyph-name="01" unicode="&#xe756;" 
d="M65 159v283h56l116 -189v189h53v-283h-57l-115 185v-185h-53zM350 159v283h210v-48h-152v-63h142v-47h-142v-77h158v-48h-216zM655 159l-68 283h58l43 -194l52 194h68l50 -198l43 198h58l-69 -283h-61l-56 212l-56 -212h-62z" />
    <glyph glyph-name="shijian1" unicode="&#xe739;" 
d="M513 781q-98 0 -187.5 -38t-154 -102.5t-102.5 -154t-38 -187.5t38 -187.5t102.5 -154t154 -103t187.5 -38.5t187.5 38.5t154 103t103 154t38.5 187.5t-38.5 187.5t-103 154t-154 102.5t-187.5 38zM513 -106q-110 0 -203 54t-147 147.5t-54 203.5t54 203t147 147t203 54
t203.5 -54t147.5 -147t54 -203t-54 -203.5t-147.5 -147.5t-203.5 -54zM513 682q-104 0 -192.5 -51t-139.5 -139.5t-51 -192.5t51 -192.5t139.5 -140t192.5 -51.5t192.5 51.5t140 140t51.5 192.5t-51.5 192.5t-140 139.5t-192.5 51zM777 480l20 -34l-63 -38l-21 34zM655 594
l35 -18l-33 -67l-36 18zM203 314h74v-39h-74v39zM235 113l-15 37l68 28l15 -37zM289 402l-64 38l20 34l64 -37zM369 594l34 -67l-36 -18l-33 67zM377 -6l-35 18l33 66l36 -18zM532 -26h-41v67h41v-67zM649 -6l-33 66l35 18l34 -66zM491 269l13 333l42 -303l233 -162z
M751 275v39h74v-39h-74z" />
    <glyph glyph-name="gengduo1" unicode="&#xe702;" 
d="M4 -57v51h1020v-51h-1020zM4 325h1020v-51h-1020v51zM4 656h1020v-51h-1020v51z" />
    <glyph glyph-name="bumenguanli" unicode="&#xe611;" 
d="M316 -8h-127q-6 0 -10 4.5t-4 9.5v757q0 5 4 9.5t10 4.5h644q6 0 10 -4.5t4 -9.5v-408l56 -24v432q0 29 -20.5 49.5t-49.5 20.5h-644q-29 0 -49.5 -20.5t-20.5 -49.5v-757q0 -28 20.5 -49t49.5 -21h127v56v0zM771 430q0 55 -39 93.5t-93.5 38.5t-93.5 -38.5t-39 -93.5
t39 -93.5t93.5 -38.5t93.5 38.5t39 93.5v0zM815 253h-25l-137 -278l52 256l-67 67l-66 -67l52 -256l-138 278h-24q-19 0 -33 -3.5t-23 -9t-15.5 -16.5t-10 -19.5t-5 -25.5t-1.5 -27v-31v-185h529v185v31t-2 27t-5 25.5t-9.5 19.5t-15.5 16.5t-23.5 9t-32.5 3.5v0zM263 686
h492v-52h-492v52zM263 554h170v-56h-170v56zM263 412h190v-52h-190v52zM263 412z" />
    <glyph glyph-name="close" unicode="&#xe6be;" 
d="M564 264l289 288q10 10 10 24.5t-10 25t-24.5 10.5t-24.5 -11l-290 -287l-286 287q-11 11 -25 11t-24.5 -10.5t-10.5 -25t10 -24.5l287 -287l-289 -288q-10 -10 -10 -24.5t10 -25t24.5 -10.5t24.5 11l289 287l289 -290q11 -10 25.5 -10t24.5 10t10 24.5t-10 24.5z
M564 264z" />
    <glyph glyph-name="sousuo1" unicode="&#xe63b;" 
d="M950 -99l-231 228q98 106 98 248q0 101 -50.5 186t-137 134.5t-189 49.5t-189 -49.5t-137 -134.5t-50.5 -186t50.5 -186t137 -135t188.5 -50q134 0 237 83l232 -228q9 -9 21 -9t20.5 8.5t8.5 20.5t-9 20zM440 63q-132 0 -225 92t-93 222t93 221.5t225 91.5t225.5 -91.5
t93.5 -221.5t-93.5 -222t-225.5 -92z" />
    <glyph glyph-name="32gougou" unicode="&#xe683;" 
d="M367 -30l-302 302l67 67l235 -234l525 525l67 -67z" />
    <glyph glyph-name="qq" unicode="&#xe68e;" 
d="M160 350l-2 5l-2 8l-1 4v6v6v6l2 6l2 8l3 7l3 8l4 9l6 9v6l1 6l1 7l3 9l2 10l2 4l2 4l3 4l3 4v6v7v8l2 11l2 13l3 16l4 16l4 9l3 9l4 9l4 10l4 10l6 10l5 11l7 10l4 6l3 5l8 11l8 11l9 12l9 11l11 11l11 11l13 12l8 7l11 8l10 7l11 7l11 6l12 5l13 6l13 4l13 5l13 4l14 3
l15 3l15 3l14 2l15 1l15 1h15h15h16l15 -2l15 -1l16 -2l14 -3l16 -4l14 -4l16 -4l14 -5l14 -6l15 -6l13 -7l13 -7l13 -8l11 -8l5 -4l6 -3l10 -9l8 -9l9 -8l8 -10l7 -9l9 -10l5 -10l6 -9l6 -11l5 -9l9 -20l4 -10l4 -9l3 -11l3 -9l2 -8l3 -10l4 -18l3 -15l2 -14l2 -12l3 -18
v-3l2 -3l6 -10l4 -6l3 -7l4 -7l4 -8l2 -9l3 -9l2 -10v-5l1 -5v-6l-1 -5v-6l-1 -6l-3 -12l-3 -6l-2 -7v-1l1 -2l3 -5l14 -20l10 -15l5 -10l7 -11l6 -12l7 -13l7 -15l8 -16l4 -10l4 -10l4 -10l3 -9l3 -10l2 -9l4 -18l2 -18l2 -17v-8v-8v-6l-1 -8l-2 -14l-2 -13l-4 -11l-1 -5
l-3 -6l-2 -3l-3 -5l-3 -3l-3 -4l-3 -3l-3 -3l-4 -2l-3 -1l-3 -1h-2h-2l-3 1l-5 2l-2 2l-2 2l-3 2l-3 3l-4 5l-6 7l-4 7l-4 6l-4 7l-6 12l-6 12h-1h-1l-3 -1l-1 -4l-3 -4l-4 -12l-7 -17l-8 -21l-7 -10l-6 -11l-8 -12l-9 -12l-4 -5l-5 -6l-12 -12l1 -1l2 -2l6 -3l25 -12l10 -6
l11 -6l10 -8l9 -8l5 -3l3 -4l4 -5l2 -5l2 -4l2 -5l1 -5l1 -5l-1 -3v-4l-1 -3l-2 -4l-1 -2l-1 -3l-5 -6l-4 -5l-3 -4l-3 -3l-7 -5l-8 -4l-8 -4l-9 -4l-10 -4l-5 -2l-5 -1l-12 -3l-12 -3l-12 -2l-13 -2l-13 -1l-14 -2h-14h-14h-15l-15 1l-15 2l-15 2l-16 1l-16 3l-15 4l-16 3
l-15 4l-16 6l-15 4l-8 3l-7 2l-5 2l-4 1h-6h-7l-15 1l-7 1l-10 1l-6 -6l-8 -5l-12 -5l-12 -7l-8 -4l-8 -3l-18 -7l-9 -3l-10 -2l-14 -3l-9 -1l-9 -1l-10 -1h-11h-11h-11h-24h-26l-25 3l-13 2l-12 2l-12 1l-12 3l-11 3l-11 3l-10 4l-9 4l-9 4l-8 5l-8 5l-2 3l-4 3l-2 3l-3 3
l-2 4l-1 3l-3 7l-1 3l-1 5v3l1 4v5l1 4v2v6l1 5l2 5l1 5l3 6l3 2l1 3l5 6l4 3l4 2l3 3l5 2l4 2l6 3l5 2l6 1l7 2l7 1l8 1h8l2 1h1l1 1v1l-2 2l-4 2l-11 10l-8 6l-9 8l-8 8l-9 11l-11 12l-4 7l-5 7l-5 8l-4 9l-5 8l-4 9l-4 10l-4 10l-3 10l-3 13h-1h-1v1h-1l-2 -1h-1l-1 -2
l-1 -3l-1 -2l-1 -4l-5 -9l-3 -6l-4 -4l-5 -6l-5 -7l-5 -5l-6 -6l-6 -5l-6 -4l-7 -5l-7 -2l-7 -2l-8 -1h-1h-1l-2 1l-1 3l-2 1l-3 8l-2 3l-2 6l-2 6v6l-3 13l-1 7v8v17l1 19l2 10l1 10l2 10l3 10l3 12l4 11l4 11l4 11l6 11l5 12l7 11l8 12l8 11l8 13l7 8l9 10l9 9l4 5l6 5
l7 7l8 7l13 11l9 7z" />
    <glyph glyph-name="dianhua1" unicode="&#xe69e;" 
d="M766 -48q-4 0 -7 1v0q-66 4 -140 42v1l-54 30q-46 25 -115.5 84t-100.5 89.5t-51 51.5l-11 12v0q-78 84 -134 176q-84 137 -78 233q5 72 58 115q57 45 107 39q53 -7 104 -76q2 -3 7 -9q47 -64 55 -95q14 -54 -34 -103l-1 -1v0q-9 -9 -10 -28q0 -28 21 -65q29 -52 95 -114
q89 -85 147 -93q25 -3 36 6v1v-1v1q42 48 106 31q45 -12 111 -61q51 -39 64 -80q15 -45 -14 -96q-4 -6 -11.5 -8t-14 1.5t-8.5 11t1 14.5q21 36 12 66q-10 29 -52 61q-60 45 -97 55q-42 11 -69 -20q-15 -18 -47 -20q-76 -4 -190 103q-130 125 -127 210q2 34 22 53
q17 17 23.5 32t0.5 34t-16 35.5t-34 47.5l-6 9q-42 56 -79 61q-34 4 -78 -31q-41 -33 -45 -88q-5 -85 73 -212q60 -98 140 -181l2 -2q25 -26 57 -57t95 -84t104 -75v0l54 -31q67 -34 124 -38q16 -1 33 2q6 1 20 4q58 11 101 12q7 1 13 -4.5t6 -13t-5 -13.5t-13 -6
q-40 -2 -95 -12q-14 -3 -20 -4q-17 -3 -35 -3z" />
    <glyph glyph-name="baoxiaoshenqing" unicode="&#xe69b;" 
d="M517 26q19 0 32 13.5t13 31.5v90h91q19 0 32 13.5t13 32t-13 31.5t-32 13h-91v46h91q19 0 32 13t13 31.5t-13 32t-32 13.5h-68l62 62q13 13 13 32t-13 32t-32 13t-32 -13l-60 -60l-60 60q-13 13 -31.5 13t-32 -13t-13.5 -32t14 -32l62 -62h-80q-19 0 -32 -13.5t-13 -32
t13 -31.5t32 -13h90v-46h-90q-19 0 -32 -13t-13 -31.5t13 -32t32 -13.5h90v-90q0 -18 13 -31.5t32 -13.5v0zM913 500q-2 7 -6 12q-1 1 -1 2h-1q-12 16 -33 16q-18 0 -30.5 -13t-12.5 -31q0 -16 11 -28q37 -76 37 -161q0 -98 -48 -181t-131.5 -131.5t-181.5 -48.5t-181 48.5
t-131.5 131.5t-48.5 181t48.5 181.5t131.5 131.5t181 48q116 0 209 -66q13 -18 36 -18q18 0 31 13t13 31.5t-13 31.5v0l-1 1l-6 4q-121 94 -273 94q-92 0 -175 -35.5t-143 -95.5t-95.5 -143t-35.5 -174.5t35.5 -174.5t95.5 -143t143 -95.5t174.5 -35.5t174.5 35.5t143 95.5
t95.5 143t35.5 174q0 106 -47 200v0zM913 500z" />
    <glyph glyph-name="dailishang" unicode="&#xe733;" 
d="M512 787q99 0 190 -38q87 -37 154.5 -104.5t104.5 -154.5q38 -91 38 -190t-38 -190q-37 -87 -104.5 -154.5t-154.5 -104.5q-91 -38 -190 -38t-190 38q-87 37 -154.5 104.5t-104.5 154.5q-38 91 -38 190t38 190q37 87 104.5 154.5t154.5 104.5q91 38 190 38zM512 812
q-139 0 -257 -68.5t-186.5 -186.5t-68.5 -257t68.5 -257t186.5 -186.5t257 -68.5t257 68.5t186.5 186.5t68.5 257t-68.5 257t-186.5 186.5t-257 68.5v0zM849 300q-39 38 -90 50q-1 1 -2 1h-4q-1 0 -2 -1q-16 -8 -38 -8t-38 8q-1 1 -3 1h-2h-1q-22 -5 -43 -16
q-11 -39 -39 -66h258q6 0 6 6v21q0 2 -2 4zM648 443q0 -5 3 -8t7 -3v0q2 -23 18 -41.5t37 -18.5t37 18.5t17 41.5v0q5 0 8 3t3 8q0 7 -6 10q3 11 3 22q0 27 -18 46.5t-44 19.5t-44.5 -19.5t-18.5 -46.5q0 -11 4 -22q-6 -3 -6 -10zM395 337q-18 9 -37 13q-2 1 -3 1h-3
q-1 0 -3 -1q-16 -8 -38 -8t-38 8q-1 1 -3 1h-2h-1q-52 -13 -92 -51q-2 -2 -2 -4v-21q0 -6 6 -6h255q-28 28 -39 68zM246 443q0 -5 3 -8t8 -3v0q2 -23 17.5 -41.5t36.5 -18.5t37 18.5t18 41.5v0q4 0 7.5 3t3.5 8q0 7 -7 10q4 11 4 22q0 27 -18.5 46.5t-44.5 19.5t-44 -19.5
t-18 -46.5q0 -11 3 -22q-6 -3 -6 -10zM399 385q0 -8 5.5 -14t12.5 -6v0q3 -29 19 -54q5 -10 13 -18q28 -30 61 -30q37 0 65 33l6 8q20 28 22 61h1q7 0 12.5 6t5.5 14q0 12 -11 17q6 18 6 37q0 46 -31 79.5t-75.5 33.5t-75.5 -33.5t-31 -79.5q0 -19 6 -37q-11 -5 -11 -17z
M590 232q-2 1 -5 1h-5q-3 0 -5 -1q-27 -15 -64.5 -15t-64.5 15q-3 1 -5 1h-4q-1 0 -2 -1q-90 -21 -158 -87q-3 -3 -3 -7v-35q0 -10 10 -10h453q9 0 9 10v35q0 4 -3 7q-66 65 -153 87z" />
    <glyph glyph-name="feijishang" unicode="&#xe636;" 
d="M495 -170q-9 20 -23.5 52.5t-45 101.5t-51 115l-20.5 46q1 -1 -76 34.5t-153.5 71l-76.5 35.5q842 452 868 465q13 5 20.5 -3.5t3.5 -20.5zM868 659l-484 -509q9 -20 36.5 -86t51 -121.5l23.5 -55.5zM365 169v0l484 509l-745 -396q261 -112 261 -113z" />
    <glyph glyph-name="weibiaoti1" unicode="&#xe773;" 
d="M444 744h34h34v-34v-35h-34h-34v35v34zM307 539h137l68 68l68 68l69 69v68h-342v-68v-69v-68v-68zM34 675v-68v-68v-683l68 -68h752l68 68v478l-83 -93v-369h-722v672h135v67h-135v67h135v67l-150 -1zM239 61l-69 -136l137 68zM922 539l68 68v68l-68 69h-68l-69 -69z
M239 129l136 -136l479 478l-137 136z" />
    <glyph glyph-name="waichu" unicode="&#xe70c;" 
d="M931 691h-527q-12 0 -21 -9t-9 -21v-116l60 -38v124h382l-154 -87q-15 -9 -15 -26v-461h-213v42l-60 61v-133q0 -12 9 -21t21 -9h243v-113q0 -17 15 -25q7 -4 15 -4t15 3l247 141q21 6 21 28v634q0 12 -8.5 21t-20.5 9v0zM434 249l32 -46q82 1 124 0q20 0 27 -17
t-1 -33.5t-26 -16.5q-14 -1 -145 -1q-16 0 -30 21l-30 43zM193 487q22 0 37.5 16t15.5 38t-15.5 37.5t-37.5 15.5t-37.5 -15.5t-15.5 -37.5t15.5 -38t37.5 -16zM274 490q81 19 95 21q10 2 14 1t14 -7q73 -45 96 -60q14 -12 12 -25.5t-15.5 -22t-25.5 -0.5l-86 56l-57 -12
q65 -92 80 -117q31 -48 -11 -76l-109 -74q42 -91 58 -129q8 -19 -4 -33t-31 -13t-29 20q-11 22 -36 81t-31 71q-9 20 -6 30t20 20l83 54l-61 98q-15 -33 -21 -48q-11 -23 -31 -24q-4 -1 -38 -4.5t-59 -5.5q-20 -2 -27.5 11.5t-1.5 28t20 16.5l86 13l41 92l61 38v0z" />
    <glyph glyph-name="shenpiliuchengtubiao2202" unicode="&#xe645;" 
d="M685 310h-144v144h-58v-144h-144v-57h144v-144h58v144h144v57zM938 573h-183v0.5v0.5v91q0 13 -9 22t-21 9h-426q-12 0 -21 -9t-9 -22v-91v-0.5v-0.5h-117v-46h801v-577h-882v238v0v383q-20 -5 -32.5 -21.5t-12.5 -37.5v-547q0 -25 17.5 -43t42.5 -18h852q25 0 42.5 18
t17.5 43v547q0 25 -17.5 43t-42.5 18zM710 573h-395v85h395v-85z" />
    <glyph glyph-name="shenpiliuchengtubiao2209" unicode="&#xe646;" 
d="M913 -74h-51q-47 0 -54 2q-17 5 -26 20q-5 8 -6.5 24t-2.5 66l-1 68q-111 -1 -256 -1t-266 1l-1 -72q0 -68 -3 -76q-6 -17 -23 -26q-9 -6 -53 -6h-12q-30 0 -36 1q-12 1 -25 14l-14 14v153q-21 2 -37 20q-16 17 -19 39q-1 11 -1 82t1 84q2 19 24 52q12 17 20 34
q15 29 67 148q29 66 43 84t44 22q16 1 287 1t287 -1q26 -3 41 -19q10 -10 20 -30t43 -94q51 -116 67 -140q17 -25 21 -35t6 -31q1 -18 1 -80.5t-1 -74.5q-4 -27 -22 -44l-2 -2q-14 -13 -32 -15v-152zM819 -38q1 0 7 -0.5t15.5 -0.5h20.5h36l8 9v111h-98l1 -43q1 -68 3 -72
q3 -3 7 -4v0zM118 -30l3 -4q5 -4 6 -5h31h12q33 1 36 1q5 3 7 7q1 7 1 65l1 47h-97v-111zM512 639q-266 0 -283 -1q-16 -2 -24.5 -14t-34.5 -72q-53 -120 -68 -149q-9 -19 -22 -38q-17 -25 -18 -36q-1 -10 -1 -78.5t1 -78.5q2 -11 10 -20q6 -7 11.5 -8.5t31.5 -2.5h401h367
l12 1q36 0 42.5 1t11.5 5l2 3q9 8 11 22q1 10 1 70.5t-1 77.5q-1 15 -4 21.5t-18 27.5q-12 18 -23 41t-47 105q-45 103 -55 114q-6 6 -20 8q-17 1 -283 1zM164 204v0q-22 0 -43 13q-35 21 -39 63.5t27 70.5q19 17 46 20.5t51 -8.5q13 -7 25 -22t16 -31q10 -36 -11 -68
q-17 -28 -49 -35q-12 -3 -23 -3zM165 338q-19 0 -33 -13q-18 -16 -15.5 -41t23.5 -37q17 -11 39 -6q18 4 28 20q12 19 6 40q-2 9 -9 18t-14 13q-12 6 -25 6zM855 205q-13 0 -20 2q-13 3 -28 15t-23 26q-8 15 -9 37t6 38q23 49 76 49h1q46 0 70 -36q18 -27 13 -61
q-3 -26 -23 -46q-19 -19 -43 -22q-9 -2 -20 -2zM858 355l-1 -18q-31 0 -44 -29q-4 -8 -3.5 -21.5t5.5 -21.5q4 -8 13 -15t15 -9q10 -2 27 0q12 2 23 13q12 12 14 26q2 20 -8 36q-14 21 -41 21v18v0zM512 394v0q-142 0 -212 0.5t-108 1.5t-44 2.5t-9 4.5q-6 9 -4.5 17
t14.5 37q60 138 69 149l9 11l30 1q15 1 152 1q361 0 376 -2q12 -3 19 -8q6 -4 27.5 -52t40 -93.5t18.5 -46.5l1 -8l-6 -6q-5 -5 -23.5 -6t-124.5 -2q-103 -1 -225 -1zM176 431q91 -1 336 -1v0h225q79 1 110 2q-43 105 -66 149q-2 1 -3 1q-23 2 -369 2q-135 0 -150 -1l-14 -1
q-8 -11 -64 -139q-3 -7 -5 -12z" />
    <glyph glyph-name="553zuzhijiagou" unicode="&#xe686;" 
d="M857 55q-23 0 -45 -10l-284 284v218q36 6 61 34.5t25 66.5q0 41 -30 71t-71.5 30t-71.5 -30t-30 -71q0 -38 24.5 -66.5t61.5 -34.5v-218l-285 -285q-22 11 -46 11q-42 0 -71.5 -30t-29.5 -72t29.5 -71.5t71.5 -29.5t71.5 29.5t29.5 71.5q0 43 -30 72l260 260v-232
q-37 -5 -61.5 -33.5t-24.5 -66.5q0 -42 30 -71.5t71.5 -29.5t71.5 29.5t30 71.5q0 38 -25 66.5t-61 33.5v233l259 -259q-31 -30 -31 -73q0 -42 30 -72t71.5 -30t71.5 30t30 72t-30 71.5t-72 29.5zM166 -117q-29 0 -50 20.5t-21 49.5t21 50t50 21t50 -21t21 -50t-21 -49.5
t-50 -20.5zM442 647.5q0 29.5 20.5 50t50 20.5t50 -20.5t20.5 -50t-20.5 -50t-50 -20.5t-50 20.5t-20.5 50zM583 -47q0 -29 -20.5 -49.5t-50 -20.5t-50 20.5t-20.5 49.5t20.5 50t50 21t50 -21t20.5 -50zM857.5 -117q-29.5 0 -50 21t-20.5 50t20.5 49.5t50 20.5t50 -20.5
t20.5 -49.5t-20.5 -50t-50 -21z" />
    <glyph glyph-name="dianhua2" unicode="&#xe69f;" 
d="M357 443q24 24 22 39q0 10 -5 18q-1 2 -11 11l-21 21q-3 3 -99 100l-11.5 11.5t-11.5 10.5q-10 11 -13 12q-6 4 -15 5q-6 0 -13 -3.5t-10.5 -6.5t-13.5 -13q-7 -7 -18.5 -19t-19.5 -19q95 -95 203 -204l19 19zM504 104q-7 5 -21.5 17t-21.5 17q-10 8 -14 11
q-12 11 -18 17q-9 8 -20 18l-5 5l-14 14l-7 7q-4 4 -11 11.5t-9 9.5q-1 1 -17 19q-3 3 -10 13q-4 5 -13 16t-14 17q-39 60 -7 92l-99.5 99.5l-103.5 103.5q-8 -8 -13 -17q-9 -17 -14 -36q-16 -60 1 -132q7 -34 28 -84q6 -14 30 -58q5 -9 16.5 -26t12.5 -19q8 -11 10 -15
q6 -8 18 -23t17 -22q2 -3 6.5 -8t7.5 -8q4 -4 11.5 -13t10.5 -13q21 -23 27 -28q1 -1 3 -3.5t3 -3.5q9 -8 24 -24q1 -1 3.5 -3t3.5 -3q23 -22 25 -24l8 -7q5 -5 15 -13.5t13 -11.5q12 -9 26 -21q7 -5 17 -12q5 -4 21 -15t25 -17q41 -24 54 -31q27 -13 56 -24q17 -7 26 -9
q3 -1 14 -4t17 -4q66 -14 117 -1q23 5 38 14q15 7 23 16q-24 24 -95 95.5t-108 108.5q-14 -14 -31.5 -14t-29.5 6t-32 20zM875 -3q-2 3 -12 13q-20 20 -21 20q-87 88 -96 97l-11 11l-11 11q-11 11 -15 13h3q-5 9 -22 10q-10 0 -19 -6l-27.5 -27.5l-28.5 -28.5
q88 -87 203 -203l18.5 18.5l19.5 19.5q10 9 13.5 13t7 10.5t2.5 13.5q-1 9 -4 15zM741 382h73q0 91 -64 155.5t-155 64.5v-73q61 0 103.5 -43t42.5 -104zM595 749v-74q121 0 206.5 -85.5t85.5 -207.5h74q0 100 -49 184t-133.5 133.5t-183.5 49.5z" />
    <glyph glyph-name="wiicaigou" unicode="&#xe61d;" 
d="M884 183h-573q-10 0 -18 6.5t-10 16.5l-113 615h-126q-12 0 -20 8t-8 19.5t8 19.5t20 8h149q10 0 18 -6.5t10 -16.5l113 -615h550q12 0 20 -8t8 -19.5t-8 -19.5t-20 -8zM849 319h-557q-12 0 -20 8t-8 19.5t8 19.5t20 8h537l112 304h-601q-12 0 -20 8t-8 19.5t8 19.5t20 8
h640q15 0 23 -12t3 -25l-131 -359q-7 -18 -26 -18zM351.5 -108q-45.5 0 -78 32.5t-32.5 78t32.5 77.5t78 32t78 -32t32.5 -77.5t-32.5 -78t-78 -32.5zM351.5 57q-22.5 0 -38.5 -16t-16 -38.5t16 -39t38.5 -16.5t38.5 16.5t16 39t-16 38.5t-38.5 16zM831 -108q-46 0 -78 32.5
t-32 78t32 77.5t78 32t78 -32t32 -77.5t-32 -78t-78 -32.5zM831 57q-23 0 -39 -16t-16 -38.5t16 -39t39 -16.5t39 16.5t16 39t-16 38.5t-39 16z" />
    <glyph glyph-name="svg45" unicode="&#xe65d;" 
d="M564 698q-23 11 -43 -5l-229 -191h-183v0q-17 0 -28.5 -11.5t-11.5 -27.5l-1 -320q0 -16 11.5 -28t28.5 -12h185l228 -190q11 -9 26 -9q9 0 17 4q23 10 23 36v718q0 25 -23 36v0zM719 499q-15 7 -30.5 1.5t-22.5 -20.5t-1.5 -30.5t19.5 -22.5q4 -2 8 -5t15 -13t19 -22.5
t14.5 -34t6.5 -46.5q0 -27 -6.5 -49.5t-14 -36t-17 -24t-13.5 -13.5t-7 -4q-15 -7 -20 -23t2 -31q11 -22 36 -22q9 0 17 4q6 3 13 8t24.5 21.5t30.5 37t23.5 56t10.5 76.5q0 39 -11 73.5t-25 54.5t-32 36.5t-26 21t-13 7.5v0zM843 616q-14 9 -30 5.5t-25 -17.5t-5.5 -30
t17.5 -25q5 -4 13 -10.5t26 -28t31.5 -47t24.5 -68.5t11 -92t-10.5 -92t-23.5 -69t-30.5 -47.5t-25 -28t-12.5 -9.5q-14 -9 -17 -25.5t6 -30.5q12 -17 33 -17q12 0 22 6q7 5 17.5 13.5t33.5 36t40.5 60t32 87.5t14.5 116t-15 116t-33.5 87.5t-42.5 60.5t-34.5 36t-17.5 13v0
zM843 616z" />
    <glyph glyph-name="wangluo" unicode="&#xe631;" 
d="M513.5 763q-94.5 0 -180.5 -36.5t-148 -99t-99 -148.5t-37 -180.5t37 -180.5t99 -148t148 -99t180.5 -37t180.5 37t148.5 99t99 148t36.5 180.5t-36.5 180.5t-99 148.5t-148.5 99t-180.5 36.5zM732 321h-196v196q89 -2 175 -22q19 -85 21 -174v0zM536 277h196
q-2 -92 -22 -179q-85 -18 -174 -20v199v0zM935 321h-156q-2 82 -18 161q83 -24 157 -64q14 -48 17 -97v0zM893 482q-69 32 -144 52q-20 75 -52 144q64 -31 114.5 -81.5t81.5 -114.5v0zM633 703q40 -74 64 -157q-79 16 -161 18v155v0q50 -2 97 -16v0zM492 719v0v-155
q-85 -2 -166 -19q23 82 60 155q52 17 106 19v0v0zM325 676q-29 -68 -48 -142q-74 -20 -143 -52q63 129 191 194v0zM110 418q73 40 156 64q-16 -79 -17 -161h-156q3 49 17 97v0zM93 277h156q2 -85 17 -166q-81 23 -154 60q-16 51 -19 106v0zM137 110q67 -29 140 -48
q19 -73 48 -140q-125 63 -188 188v0zM492 -122q-54 3 -106 19q-37 73 -60 154q81 -16 166 -17v-156v0zM492 78q-91 2 -178 21q-19 87 -21 178h199v-199v0zM293 321q2 89 21 174q87 20 178 22v-196h-199v0v0zM536 -122v156q82 1 161 16q-24 -82 -64 -156q-47 -14 -97 -16v0v0
zM697 -81q32 68 52 143q74 18 142 48q-65 -128 -194 -191v0zM916 171q-74 -37 -156 -60q17 81 19 166h156q-3 -55 -19 -106v0z" />
    <glyph glyph-name="jian" unicode="&#xe74f;" 
d="M516 891q-103 0 -197.5 -40.5t-162.5 -108.5t-108 -162t-40 -197.5t40 -197.5t108 -162t162.5 -108t197.5 -40t197.5 40t162.5 108t108 162t40 197.5t-40 197.5t-108 162t-162.5 108.5t-197.5 40.5zM680 348h-328q-14 0 -24.5 10t-10.5 24.5t10.5 25t24.5 10.5h328
q14 0 24.5 -10.5t10.5 -25t-10.5 -24.5t-24.5 -10z" />
    <glyph glyph-name="shenpibaoxiao" unicode="&#xe70d;" 
d="M510 -111h-387q-29 0 -50 21t-21 50v728q0 29 21 50t50 21h600q29 0 49.5 -21t20.5 -50v-335h-38v335q0 13 -9.5 22.5t-22.5 9.5h-600q-13 0 -22.5 -9.5t-9.5 -22.5v-728q0 -14 9.5 -23t22.5 -9h387v-39zM141 381h553v-38h-553v38zM360 538h334v-39h-334v39zM493 669h201
v-39h-201v39zM742.5 -159q-94.5 0 -161.5 67.5t-67 162t67 161.5t161.5 67t162 -67t67.5 -161.5t-67.5 -162t-162 -67.5zM743 261q-79 0 -135 -56t-56 -135t56 -134.5t135 -55.5t134.5 55.5t55.5 134.5t-55.5 135t-134.5 56zM221.5 436q-7.5 0 -13.5 6t-6 14v126q0 7 6 13
t13.5 6t13.5 -6t6 -13v-126q0 -8 -6 -14t-13.5 -6zM219 547q-7 0 -12 4q-6 5 -6.5 13t4.5 14l71 84q5 6 13 6.5t14 -4.5t6.5 -13t-4.5 -14l-71 -84q-6 -6 -15 -6zM225 547q-9 0 -15 7l-71 83q-5 6 -4 14t7 13t14 4.5t13 -6.5l71 -84q5 -6 4.5 -14t-7.5 -13q-5 -4 -12 -4z
M276 532h-109q-8 0 -14 5.5t-6 13.5t6 13.5t14 5.5h109q8 0 14 -5.5t6 -13.5t-6 -13.5t-14 -5.5zM276 485h-109q-8 0 -14 6t-6 13.5t6 13.5t14 6h109q8 0 14 -6t6 -13.5t-6 -13.5t-14 -6zM743 88q-28 0 -48 20t-20 48t20 47.5t48 19.5t47.5 -19.5t19.5 -47.5t-19.5 -48
t-47.5 -20zM743 185q-12 0 -20.5 -8.5t-8.5 -20.5t8.5 -20.5t20.5 -8.5t20.5 8.5t8.5 20.5t-8.5 20.5t-20.5 8.5zM830 -61h-175q-18 0 -31 13t-13 31v13q0 19 13 32t31 13h175q19 0 32 -13t13 -32v-13q0 -18 -13 -31t-32 -13zM655 3q-6 0 -6 -7v-13q0 -6 6 -6h175q7 0 7 6
v13q0 7 -7 7h-175zM803 3h-1h-118q-12 0 -17.5 10t1.5 20l59 86q5 7 15.5 7t16.5 -7l57 -83q6 -6 6 -14t-6 -13.5t-13 -5.5zM720 41h45l-22 33z" />
    <glyph glyph-name="shenpilizhi" unicode="&#xe647;" 
d="M476 -53q-77 17 -143 60l22 32q59 -39 129 -54zM161 256q-10 45 -10 92q0 111 55 205.5t149 149.5t205 55t205.5 -55t149.5 -149.5t55 -205.5q0 -11 -1 -22l-38 2q1 10 1 20q0 101 -50 186.5t-135.5 135t-186 49.5t-186 -49.5t-135.5 -135t-50 -186.5q0 -42 10 -84z
M411 409zM371 409q0 16 11.5 27.5t28 11.5t28 -11.5t11.5 -27.5t-11.5 -27.5t-28 -11.5t-28 11.5t-11.5 27.5zM705 409zM666 409q0 16 11.5 27.5t27.5 11.5t28 -11.5t12 -27.5t-12 -27.5t-28 -11.5t-27.5 11.5t-11.5 27.5zM463 213h63v-38h-63v38zM281 -158h-128
q-8 0 -13.5 5.5t-5.5 13.5l-1 73q-12 14 -23.5 31t-28 50.5t-24 65t-1 70.5t31.5 71q8 10 19 22.5t37.5 30t51.5 17.5q79 0 103 -159q20 31 39 31q27 0 35 -43v-3q0 -12 -1 -30t-6.5 -55.5t-22.5 -71t-43 -51.5v-49q0 -8 -5.5 -13.5t-13.5 -5.5zM172 -119h90v40q0 12 10 17
q25 13 40 50t19 68.5t4 58.5v1q-15 -23 -29 -60q-5 -15 -20.5 -12.5t-16.5 17.5q-7 92 -26 142.5t-47 50.5q-20 0 -42 -18.5t-35 -36.5q-22 -28 -25 -64.5t6.5 -65t26.5 -58t25.5 -40.5t13.5 -17q5 -5 5 -12zM746.5 -160q-94.5 0 -161.5 67t-67 161.5t67 162t161.5 67.5
t161.5 -67.5t67 -162t-67 -161.5t-161.5 -67zM746.5 259q-78.5 0 -134.5 -56t-56 -134.5t56 -134.5t134.5 -56t134.5 56t56 134.5t-56 134.5t-134.5 56zM746 88q-28 0 -47.5 19.5t-19.5 47.5t19.5 48t47.5 20t48 -20t20 -48t-20 -47.5t-48 -19.5zM746 184q-12 0 -20.5 -8.5
t-8.5 -20.5t8.5 -20.5t20.5 -8.5t20.5 8.5t8.5 20.5t-8.5 20.5t-20.5 8.5zM834 -62h-175q-19 0 -32 13t-13 32v13q0 18 13 31t32 13h175q18 0 31.5 -13t13.5 -31v-13q0 -19 -13.5 -32t-31.5 -13zM659 2q-6 0 -6 -6v-13q0 -7 6 -7h175q6 0 6 7v13q0 6 -6 6h-175zM806 2v0
h-119q-11 0 -16.5 10.5t0.5 19.5l60 86q5 8 15.5 8t15.5 -8l57 -83q6 -5 6 -14q0 -8 -5.5 -13.5t-13.5 -5.5zM724 40h45l-23 33z" />
    <glyph glyph-name="shenpiyongche" unicode="&#xe70e;" 
d="M188 195q-33 0 -56.5 23t-23.5 56t23.5 56.5t56.5 23.5t56 -23.5t23 -56.5t-23 -56t-56 -23zM188 315q-17 0 -29 -12t-12 -29t12 -29t29 -12t29 12t12 29t-12 29t-29 12zM915 274h-38q0 9 -4 18q-8 16 -26.5 21t-33.5 -5l-22 32q20 14 45 14q23 0 42.5 -12.5t29.5 -33.5
q7 -16 7 -34zM221 -63h-67q-18 0 -31 13t-13 32v93q0 19 13 32t31 13h67q19 0 32 -13t13 -32v-93q0 -19 -13 -32t-32 -13zM154 81q-6 0 -6 -6v-93q0 -7 6 -7h67q6 0 6 7v93q0 6 -6 6h-67zM461 105h-339q-29 0 -49.5 22t-20.5 53v131q0 45 23 78l96 190q13 21 19.5 30.5
t20.5 18t33 11.5h2h539h3q40 -6 65 -62l93 -187q3 -5 7.5 -14t11.5 -29t7 -36v-62h-39v62q0 26 -21 60l-93 190q-17 35 -35 40h-536q-15 -2 -22 -9t-22 -31l-96 -191q-17 -30 -17 -59v-131q0 -15 9 -26t22 -11h339v-38zM841 365h-578q-20 1 -51 0h-29q-10 0 -15.5 8t-2.5 18
l55 141q4 12 7.5 18.5t13 14t22.5 7.5h497q2 0 4 -1q12 -2 20 -10.5t18 -25.5q1 -2 1 -3l56 -141q4 -10 -2 -18t-16 -8zM236 404q15 0 28 -1h549l-45 114q-8 14 -11 16h-494q-2 -1 -7 -14l-45 -115v0h25zM747.5 -161q-94.5 0 -161.5 67t-67 162t67 162t161.5 67t162 -67
t67.5 -162t-67.5 -162t-162 -67zM747.5 258q-78.5 0 -134.5 -55.5t-56 -134.5t56 -134.5t134.5 -55.5t134.5 55.5t56 134.5t-56 134.5t-134.5 55.5zM748 87q-28 0 -48 20t-20 47.5t20 47.5t48 20t47.5 -20t19.5 -47.5t-19.5 -47.5t-47.5 -20zM748 184q-12 0 -20.5 -8.5
t-8.5 -21t8.5 -21t20.5 -8.5t20.5 8.5t8.5 21t-8.5 21t-20.5 8.5zM835 -63h-175q-18 0 -31 13t-13 32v13q0 18 13 31.5t31 13.5h175q19 0 32 -13.5t13 -31.5v-13q0 -19 -13 -32t-32 -13zM660 1q-6 0 -6 -6v-13q0 -6 6 -6h175q7 0 7 6v13q0 6 -7 6h-175zM808 1h-1h-118
q-12 0 -17.5 10.5t1.5 19.5l59 86q5 8 15.5 8t16.5 -8l57 -83q6 -5 6 -13t-6 -14t-13 -6zM725 40h45l-22 32z" />
    <glyph glyph-name="bianji1" unicode="&#xe697;" 
d="M512 652q72 0 137 -28q63 -26 112 -75t75 -112q28 -65 28 -137t-28 -137q-26 -63 -75 -112t-112 -75q-65 -28 -137 -28t-137 28q-63 26 -112 75t-75 112q-28 65 -28 137t28 137q26 63 75 112t112 75q65 28 137 28zM512 684q-159 0 -271.5 -112.5t-112.5 -271.5
t112.5 -271.5t271.5 -112.5t271.5 112.5t112.5 271.5t-112.5 271.5t-271.5 112.5v0zM587 460q28 -30 79 -79l-1 -1l-1 -1l-1 -1l-1 -1l-1 -1l-1 -1l-1 -1l-1 -1l-1 -1l-1 -1l-1 -1l-1 -1l-1 -1l-1 -1l-1 -1l-1 -1l-1 -1l-1 -1l-1 -1l-1 -1l-1 -1l-1 -1l-1 -1l-1 -1l-1 -1
l-1 -1l-1 -1l-1 -1l-1 -1l-2 -1l-1 -1l-1 -1l-1 -1l-1 -1l-1 -1l-1 -1l-1 -1l-1 -1l-1 -1l-1 -1l-1 -1l-1 -1l-1 -1l-1 -1l-1 -1l-1 -1l-1 -1l-1 -1l-1 -1l-1 -1l-1 -1l-1 -1l-1 -1l-1 -1l-1 -1l-1 -1l-1 -1l-1 -1l-1 -1l-1 -1l-1 -1l-1 -1l-1 -1l-1 -1l-1 -1l-1 -1l-1 -1
l-1 -1l-1 -1l-1 -1l-1 -1l-1 -1l-1 -1l-1 -1l-1 -1l-1 -1l-1 -1l-1 -1l-1 -1l-1 -1l-1 -1l-1 -1l-1 -1l-1 -1l-1 -1l-1 -1l-1 -1l-1 -1l-1 -1l-1 -1l-1 -1l-1 -1l-1 -1l-1 -1l-1 -1l-1 -1l-1 -1l-1 -1l-1 -1l-1 -1l-1 -1l-1 -1l-1 -1l-1 -1l-1 -1l-1 -1l-1 -1l-1 -1l-1 -1
l-1 -1l-1 -1l-1 -1l-1 -1l-1 -1l-1 -1l-1 -1l-1 -1l-1 -1l-1 -1l-1 -1l-1 -1l-1 -1l-1 -1l-1 -1l-1 -1l-1 -1l-1 -1l-1 -1l-1 -1l-1 -1l-1 -1l-1 -1l-1 -1l-1 -1h-1l-1 -1l-1 -1l-1 -1l-1 -1l-1 -1l-1 -1l-1 -1l-1 -1l-1 -1l-1 -1l-1 -1l-1 -1l-1 -1l-1 -1l-1 -1l-1 -1
l-1 -1l-1 -1l-1 -1l-1 -1l-1 -1l-1 -1l-1 -1l-1 -1l-1 -1l-1 -1l-1 -1l-1 -1l-1 -1l-1 -1l-1 -1l-1 -1l-1 -1l-1 -1l-1 -1l-1 -1l-1 -1l-1 -1l-1 -1l-1 -1l-1 -1l-1 -1l-1 -1l-1 -1l-1 -1l-1 -1l-1 -1l-1 -1l-1 -1l-1 -1l-1 -1l-1 -1l-1 -1l-1 -1l-1 -1l-1 -1l-1 -1l-1 -1
l-1 -1l-1 -1l-1 -1l-1 -1l-1 -1l-1 -1l-1 -1l-1 -1l-1 -1l-1 -1l-1 -1l-1 -1l-1 -1l-1 -1l-1 -1l-1 -1l-1 -1l-1 -1l-2 -2q-13 14 -78 79q177 176 213 212zM681 398q-44 45 -79 79l2 2l36 36q11 11 25 11t25 -11l29 -29q11 -11 11 -25t-11 -25l-16.5 -16.5t-19.5 -18.5
q0 -1 -2 -3zM310 105q3 4 47 126q52 -52 78 -77q-26 -10 -124 -49h-1z" />
    <glyph glyph-name="lingxian" unicode="&#xe6ed;" 
d="M513 555q17 0 31.5 -6t25.5 -16.5t17.5 -24.5t6.5 -29q0 -23 -13 -41t-33 -28q-7 -19 -7 -39q0 -22 9 -44t24 -40t35.5 -29t43.5 -11q21 0 38.5 9t32 23.5t25 32t14.5 35.5q-17 7 -28 23t-11 35q0 13 5 24.5t14 20t21.5 13.5t26 5t26 -5t21.5 -13.5t14 -20t5 -24.5
q0 -19 -10.5 -34.5t-27.5 -23.5q-3 -30 -9.5 -61.5t-16.5 -62.5q-16 -49 -35 -102q-15 -38 -54 -50q-36 -10 -74 -16q-58 -10 -119 -10t-118 10q-38 6 -74 17q-40 11 -54 50q-20 52 -35 101q-10 31 -17 62.5t-9 61.5q-17 8 -27 23.5t-10 34.5q0 13 5 24.5t14 20t21 13.5
t25.5 5t26 -5t21.5 -13.5t14 -20t5 -24.5q0 -20 -11 -35.5t-28 -22.5q4 -19 14 -36.5t24.5 -32t32.5 -23.5t38 -9q24 0 44 11t36 29t24.5 40t8.5 45q0 21 -9 41q-18 10 -29.5 27.5t-11.5 39.5q0 15 6.5 29t17.5 24.5t25.5 16.5t31.5 6v0zM513 555z" />
    <glyph glyph-name="dianhuaben" unicode="&#xe6e5;" 
d="M931 812h-64h-51h-66h-5l-583 -1q-39 0 -66 -27.5t-27 -66.5v-138h106q14 0 24.5 -10t10.5 -25v-23q0 -15 -10.5 -25t-24.5 -10h-12v12q0 14 -10 24t-25 10h-93h-3v0q-22 -2 -30 -23v1q-2 -6 -2 -12v-24q0 -14 10.5 -24.5t24.5 -10.5h34v-256h106q14 0 24.5 -10t10.5 -25
v-23q0 -14 -10.5 -24.5t-24.5 -10.5h-12v12q0 14 -10 24.5t-25 10.5h-93h-3v0q-22 -2 -30 -24v1q-2 -6 -2 -12v-23q0 -15 10.5 -25t24.5 -10h34v-163q0 -38 27 -65.5t66 -27.5h769q38 0 65.5 27.5t27.5 65.5v838q0 38 -27.5 65.5t-65.5 27.5zM498 639q14 8 29 4t23 -18
l47 -82q8 -14 4 -29t-18 -23l-33 -19l-86 148zM747 17q-78 -45 -167 20q-73 54 -147 183q-61 105 -78 184q-28 135 61 186l17 10l85 -146h-1q-27 -16 -35.5 -46.5t7.5 -57.5l85 -147q16 -27 46.5 -35.5t57.5 7.5v0l86 -148zM830 65l-33 -21l-86 148l33 20q14 8 29 4t23 -17
l47 -83q8 -13 4 -28.5t-17 -22.5z" />
    <glyph glyph-name="jianmianbaifang" unicode="&#xe6b4;" 
d="M309 485q-4 -10 2.5 -19t17.5 -7l67 8q11 -6 23 -11q35 -15 73 -15q51 0 91.5 25.5t57.5 68.5q25 61 -6 124q-30 61 -97 88q-36 15 -73 15q-51 0 -91.5 -25.5t-58.5 -68.5q-28 -69 14 -137zM351 654q13 31 44 50t70 19q30 0 58 -11q54 -22 78 -70q23 -48 5 -92
q-13 -32 -44 -51t-70 -19q-30 0 -59 11q-12 6 -23 13q-5 2 -10 2h-3l-39 -5l10 24q5 10 -2 19q-38 54 -15 110zM665 449l-26 6q-8 2 -15 -2l-8 -4q-21 -10 -45 -10q-11 -1 -22 1l-7 -38q10 -2 22 -2h9q31 1 59 14q2 1 5 2l54 -13q11 -2 19 6.5t4 19.5l-17 45q28 52 12 109
q-3 11 -8 21l-35 -16q4 -8 6 -16q13 -45 -12 -85q-6 -8 -2 -17zM140.5 360q36.5 0 62.5 26t26 62.5t-26 62.5t-62.5 26t-62.5 -26t-26 -62.5t26 -62.5t62.5 -26zM140.5 499q20.5 0 35 -15t14.5 -35.5t-14.5 -35.5t-35 -15t-35.5 15t-15 35.5t15 35.5t35.5 15zM299 107h-4
h-82v173q0 28 -20 48t-48 20t-48 -20t-20 -48v-192q0 -40 17 -58t34 -19l109 -6v-103q2 -27 15 -39.5t29 -12.5h5q24 3 36 17t13 30v166q0 21 -10.5 32.5t-25.5 11.5zM281 -112h-1h1q-4 0 -6 15v120q0 8 -5 13.5t-13 5.5l-127 8q-1 0 -4 1.5t-7 11.5t-4 25v192q0 12 9 20.5
t21 8.5t20.5 -8.5t8.5 -20.5v-192q0 -8 6 -13.5t13 -5.5l103 -1v0q1 -2 1 -5v-164q-1 -9 -16 -11zM885.5 360q36.5 0 62.5 26t26 62.5t-26 62.5t-62.5 26t-62.5 -26t-26 -62.5t26 -62.5t62.5 -26zM886 499q21 0 35.5 -15t14.5 -35.5t-14.5 -35.5t-35.5 -15t-35.5 15
t-14.5 35.5t14.5 35.5t35.5 15zM881 348q-28 0 -48 -20t-20 -48v-173h-82h-4q-15 0 -25.5 -11.5t-10.5 -32.5v-169q2 -13 13.5 -27t33.5 -16q3 -1 7 -1q16 0 29 13t15 40v102l108 6q18 1 35 19t17 58v192q0 28 -20 48t-48 20zM911 88q0 -13 -3 -22t-6 -12.5t-7 -3.5l-126 -8
q-8 0 -13 -5.5t-5 -13.5v-118q-2 -17 -6 -17h-1q-13 2 -15 10v165q0 3 1 5v0l103 1q8 0 13.5 5.5t5.5 13.5v192q0 12 8.5 20.5t20.5 8.5t21 -8.5t9 -20.5v-192zM669 172h-305q-8 0 -14 -5.5t-6 -13.5v-42q0 -8 6 -13.5t14 -5.5h22v-223q0 -8 5.5 -13.5t13.5 -5.5h85
q8 0 14 5.5t6 13.5v156h16v-156q0 -8 5.5 -13.5t13.5 -5.5h83q8 0 14 5.5t6 13.5v224h21q8 0 13.5 5.5t5.5 13.5v41q0 8 -5.5 13.5t-13.5 5.5zM650 131h-22q-8 0 -13.5 -5.5t-5.5 -13.5v-224h-45v156q0 8 -5.5 13.5t-13.5 5.5h-55q-8 0 -13.5 -5.5t-5.5 -13.5v-156h-47v223
q0 8 -5.5 13.5t-13.5 5.5h-22v4h267v-3v0z" />
    <glyph glyph-name="yewulei" unicode="&#xe690;" 
d="M642 603v93h-261v-93h-317v-710h895v710h-317zM418 659h187v-56h-187v56zM922 -70h-821v299h280v-74h261v74h280v-299zM418 192v112h187v-112h-187zM922 267h-280v74h-261v-74h-280v298h280h261h280v-298z" />
    <glyph glyph-name="jiahao" unicode="&#xe602;" 
d="M809 325h-272v272q0 10 -7.5 17.5t-17.5 7.5t-17.5 -7.5t-7.5 -17.5v-272h-272q-10 0 -17.5 -7.5t-7.5 -17.5t7.5 -17.5t17.5 -7.5h272v-272q0 -10 7.5 -17.5t17.5 -7.5t17.5 7.5t7.5 17.5v272h272q10 0 17.5 7.5t7.5 17.5t-7.5 17.5t-17.5 7.5z" />
    <glyph glyph-name="gongsimingcheng" unicode="&#xe605;" 
d="M807 618h-138v137q0 31 -22 53t-53 22h-377q-31 0 -53.5 -22t-22.5 -53v-740q0 -31 22.5 -53t53.5 -22h377h0.5h0.5v0h212q31 0 53 22t22 53v528q0 31 -22 53t-53 22zM217 -4q-8 0 -13.5 5.5t-5.5 13.5v740q0 7 5.5 12.5t13.5 5.5h377q7 0 12.5 -5.5t5.5 -12.5v-740
q0 -8 -5.5 -13.5t-12.5 -5.5h-377v0zM825 15q0 -8 -5.5 -13.5t-12.5 -5.5h-140q2 9 2 19v546h138q7 0 12.5 -5.5t5.5 -12.5v-528zM292 666h57v-56h-57v56zM457 666h56v-56h-56v56zM292 499h57v-56h-57v56zM462 499h56v-56h-56v56zM292 327h57v-56h-57v56zM462 327h56v-56
h-56v56zM292 160h57v-57h-57v57zM462 160h56v-57h-56v57z" />
    <glyph glyph-name="duanxin" unicode="&#xe606;" 
d="M880 620h-736q-33 0 -56.5 -23.5t-23.5 -56.5v-480q0 -33 23.5 -56.5t56.5 -23.5h736q33 0 56.5 23.5t23.5 56.5v480q0 33 -23.5 56.5t-56.5 23.5zM928 60q0 -20 -14 -34t-34 -14h-736q-20 0 -34 14t-14 34v480q0 20 14 34t34 14h736q20 0 34 -14t14 -34v-480zM807 454
l-295 -217l-295 217q-12 10 -21.5 -3t3.5 -22l304 -224q0 -1 0.5 -1h0.5q1 -1 2 -1q3 -2 6 -2v0v0q3 0 6 2q1 0 2 1h0.5t0.5 1l304 224q13 9 4 22q-4 5 -10.5 6t-11.5 -3z" />
    <glyph glyph-name="pmjinsheng" unicode="&#xe64e;" 
d="M151 -122zM873 -152h-843q-12 0 -21 9t-9 21.5t9 21t21 8.5h843q13 0 22 -8.5t9 -21t-9 -21.5t-22 -9zM873 360zM873.5 330q-12.5 0 -21.5 9t-9 21v151h-150q-13 0 -21.5 8.5t-8.5 21t8.5 21.5t21.5 9h211v-211q0 -12 -9 -21t-21.5 -9zM450 138l-239 240l-160 -160
q-8 -8 -20.5 -8t-21.5 8.5t-9 21t9 21.5l202 202l242 -242l401 343q9 8 21.5 7t20.5 -10.5t7 -22t-10 -20.5z" />
    <glyph glyph-name="fenxiang1" unicode="&#xe634;" 
d="M768 182q-52 0 -95.5 -28.5t-64.5 -74.5l-290 134q36 48 36 106.5t-37 107.5l286 143q20 -50 65 -81t100 -31q73 0 125 52t52 125t-52 125t-125 52t-125 -52t-52 -125q0 -7 2 -26l-304 -153q-50 41 -112 41q-73 0 -125 -52t-52 -125.5t52 -125.5t125 -52q62 0 112 41
l306 -141q-4 -20 -4 -37q0 -74 52 -126t125 -52t125 52t52 125.5t-52 125.5t-125 52zM768 773q57 0 97.5 -40.5t40.5 -97.5t-40.5 -97.5t-97.5 -40.5t-97.5 40.5t-40.5 97.5t40.5 97.5t97.5 40.5zM177 182q-57 0 -97.5 40.5t-40.5 97.5t40.5 97.5t97.5 40.5t97.5 -40.5
t40.5 -97.5t-40.5 -97.5t-97.5 -40.5zM768 -133q-57 0 -97.5 40.5t-40.5 97.5t40.5 97t97.5 40t97.5 -40t40.5 -97t-40.5 -97.5t-97.5 -40.5z" />
    <glyph glyph-name="gonggao" unicode="&#xe63c;" 
d="M602 -212q-11 0 -20 8l-292 263h-170q-19 0 -39 6.5t-38.5 20t-30.5 38t-12 56.5v180q0 20 6.5 40t20 38.5t38 30.5t55.5 12h170l292 263q15 13 32.5 5t17.5 -27v-904q0 -20 -17 -27q-6 -3 -13 -3zM120 420q-19 0 -32.5 -7.5t-19 -19t-7 -19t-1.5 -14.5v-180
q0 -20 7.5 -33.5t19.5 -18.5t19.5 -7t13.5 -2h181q12 0 20 -7l251 -226v768l-251 -226q-8 -8 -20 -8h-181zM753 451q-12 0 -21 8.5t-9 21t9 21.5l120 120q9 9 21.5 9t21 -8.5t8.5 -21t-8 -21.5l-121 -121q-9 -8 -21 -8zM934 240h-181q-12 0 -21 8.5t-9 21t9 21.5t21 9h181
q12 0 21 -9t9 -21.5t-9 -21t-21 -8.5zM873.5 -92q-12.5 0 -21.5 9l-120 121q-9 9 -9 21.5t8.5 21t21 8.5t21.5 -9l121 -120q8 -9 8 -21.5t-8.5 -21.5t-21 -9z" />
    <glyph glyph-name="tubiao2qifei" unicode="&#xe6bf;" 
d="M763 63h-592q-14 0 -24 -10t-10 -24.5t10 -24.5t24 -10h592q14 0 24 10t10 24.5t-10 24.5t-24 10zM934 452q-6 22 -57 43.5t-101 7.5l-137 -54l-400 150q-17 10 -36 5.5t-28.5 -21t-4 -35t22.5 -28.5l255 -147l-211 -84l-97 56q-13 8 -26.5 4t-20.5 -16t-3.5 -26
t15.5 -21l92 -52q19 -22 48 -14l654 175q20 5 30 21.5t5 35.5z" />
    <glyph glyph-name="jihui01" unicode="&#xe751;" 
d="M512 -212q-104 0 -199 40.5t-163.5 109t-109 163.5t-40.5 199t40.5 199t109 163.5t163.5 109t199 40.5q116 0 221 -50l-28 -58q-91 44 -193 44q-91 0 -174 -35.5t-143 -95.5t-95.5 -143t-35.5 -174t35.5 -174t95.5 -143t143 -95.5t174 -35.5t174 35.5t143 95.5t95.5 143
t35.5 174q0 102 -44 193l58 28q50 -105 50 -221q0 -104 -40.5 -199t-109 -163.5t-163.5 -109t-199 -40.5zM512 -20q-87 0 -160.5 43t-116.5 116.5t-43 160.5t43 160.5t116.5 116.5t160.5 43q73 0 138 -31l-27 -58q-53 25 -111 25q-106 0 -181 -75t-75 -181t75 -181t181 -75
t181 75t75 181q0 58 -25 110l58 28q31 -65 31 -138q0 -87 -43 -160.5t-116.5 -116.5t-160.5 -43zM512 300zM368 300q0 60 42 102t102 42t102 -42t42 -102t-42 -102t-102 -42t-102 42t-42 102zM893 681l-5 131l-136 -136v-90l-271 -272l45 -45l272 271h90l136 136z" />
    <glyph glyph-name="shijianzhongxin" unicode="&#xe6c0;" 
d="M326 460q-13 0 -22.5 -9t-9.5 -22t9.5 -22t22.5 -9t22.5 9t9.5 22t-9.5 22t-22.5 9v0zM326 325q-13 0 -22.5 -9t-9.5 -22t9.5 -22t22.5 -9t22.5 9t9.5 22t-9.5 22t-22.5 9v0zM326 190q-13 0 -22.5 -9t-9.5 -22t9.5 -22t22.5 -9t22.5 9t9.5 22t-9.5 22t-22.5 9v0zM719 192
h-312q-6 0 -9.5 -4t-3.5 -9v-35q0 -5 3.5 -9t9.5 -4h312q5 0 9 4t4 9v35q0 5 -4 9t-9 4v0zM719 462h-312q-6 0 -9.5 -4t-3.5 -9v-35q0 -6 3.5 -9.5t9.5 -3.5h312q5 0 9 3.5t4 9.5v35q0 5 -4 9t-9 4v0zM719 327h-312q-6 0 -9.5 -4t-3.5 -9v-35q0 -6 3.5 -9.5t9.5 -3.5h312
q5 0 9 3.5t4 9.5v35q0 5 -4 9t-9 4v0zM719 327zM513 764q-95 0 -182 -37t-150 -100t-100 -150t-37 -182.5t37 -182t100 -149.5t150 -100t182 -37t182 37t150 100t100 149.5t37 182t-37 182.5t-100 150t-150 100t-182 37zM513 -122q-113 0 -209 56t-152 152t-56 209t56 209
t152 151.5t209 55.5t209 -55.5t152 -151.5t56 -209t-56 -209t-152 -152t-209 -56z" />
    <glyph glyph-name="chaosong" unicode="&#xe6a5;" 
d="M678 607q20 0 34 -14t14 -34v-609q0 -20 -14 -34t-34 -14h-441q-20 0 -34 14t-14 34v609q0 20 14 34t34 14h441zM678 654h-441q-40 0 -68 -27.5t-28 -67.5v-609q0 -40 28 -68t68 -28h441q40 0 68 28t28 68v609q0 40 -28 67.5t-68 27.5v0zM632 412h-356q-10 0 -17 7t-7 17
t7 17t17 7h356q10 0 17 -7t7 -17t-7 -17t-17 -7zM632 241h-356q-10 0 -17 7t-7 17t7 17t17 7h356q10 0 17 -7t7 -17t-7 -17t-17 -7zM498 71h-222q-10 0 -17 7t-7 16.5t7 16.5t17 7h222q10 0 17 -7t7 -16.5t-7 -16.5t-17 -7zM859 9q-10 0 -17 7t-7 17v546q0 47 -26.5 83
t-80.5 36h-377q-10 0 -17 7t-7 17t7 17t17 7h377q68 0 111.5 -47t43.5 -120v-546q0 -10 -7 -17t-17 -7z" />
    <glyph glyph-name="xiaoxi" unicode="&#xe609;" 
d="M513 412q-23 0 -39.5 -16t-16.5 -39t16.5 -39.5t39.5 -16.5t39.5 16.5t16.5 39.5t-16.5 39t-39.5 16zM290 412q-23 0 -39.5 -16t-16.5 -39t16.5 -39.5t39.5 -16.5t39.5 16.5t16.5 39.5t-16.5 39t-39.5 16zM513 747q-121 0 -224 -52.5t-162.5 -142t-59.5 -195.5
q0 -91 44.5 -170.5t122.5 -134.5v-197l196 119q42 -7 83 -7q121 0 223.5 52t162.5 142t60 196t-60 195.5t-162.5 142t-223.5 52.5zM513 22q-46 0 -94 11l-132 -79l2 129q-77 46 -121.5 118t-44.5 156q0 91 52 168t142 121.5t196 44.5t196 -44.5t142 -121.5t52 -168t-52 -168
t-142 -122t-196 -45zM736 412q-23 0 -39.5 -16t-16.5 -39t16.5 -39.5t39.5 -16.5t39.5 16.5t16.5 39.5t-16.5 39t-39.5 16z" />
    <glyph glyph-name="wiixiadan" unicode="&#xe612;" 
d="M377 800h270v45h-270v-45zM400 710h224v45h-224v-45zM490 800v-45h44v45h-44zM737 732h45q38 0 64 -26t26 -64v-561q0 -47 -33 -80t-80 -33h-494q-47 0 -80 33t-33 80v562q0 37 26 63t64 26h45v45h-45q-56 0 -95.5 -39t-39.5 -96v-561q0 -65 46.5 -111.5t111.5 -46.5h494
q65 0 111.5 46.5t46.5 111.5v562q0 56 -39.5 95t-95.5 39h-45v-45zM281 536h461v-44h-461v44zM280 382h462v-45h-462v45zM281 228h462v-45h-462v45zM281 228z" />
    <glyph glyph-name="cp-number" unicode="&#xe601;" 
d="M705 -122q-64 0 -169 65q-100 61 -195 154v0l-20 20q-92 95 -154 194q-64 105 -64 169q0 63 57 140q11 14 24 28.5t36 31.5t42 17q24 0 57 -35q26 -26 54 -67q27 -39 46 -73q21 -41 21 -61q0 -26 -27 -45q-12 -8 -39 -20q-24 -10 -30 -15q5 -19 34 -62q34 -50 74 -91
q41 -41 92 -75q42 -29 62 -33q4 5 15 29q12 28 20 40q18 26 44 26q20 0 61 -21q35 -19 74 -46q41 -28 66 -53q36 -34 36 -58q0 -18 -17 -41.5t-31.5 -36t-29.5 -23.5q-77 -58 -139 -58v0v0zM375 131q91 -89 186 -147q94 -58 144 -58q45 0 108 47q27 20 45 40q12 15 15 23
q-4 9 -25.5 29.5t-59.5 46.5q-35 24 -65 39q-26 14 -37 16q-3 -2 -7.5 -9.5t-13.5 -27.5q-10 -25 -17 -35q-16 -24 -39 -24h-1q-30 0 -91 42q-55 37 -99 80v1q-43 44 -80 98q-42 61 -43 91q0 24 25 40q10 7 34 18q20 8 27.5 12.5t10.5 7.5q-2 11 -16 37q-16 31 -40 65
q-26 38 -46 59.5t-29 25.5q-9 -2 -24 -15q-20 -18 -40 -44q-46 -63 -46 -109q0 -50 58 -143q58 -95 147 -187l19 -19v0zM375 131z" />
    <glyph glyph-name="yingyong" unicode="&#xe658;" 
d="M418 65v0v141h-142q-58 0 -99.5 -41t-41.5 -99.5t41.5 -100t100 -41.5t100 41.5t41.5 99.5v0zM488 65q0 -88 -62 -150t-149.5 -62t-149.5 62t-62 150t62 150t149 62h142h70v-71v-141zM606 65v141h141q59 0 100 -41t41 -99.5t-41 -100t-99.5 -41.5t-100 41.5t-41.5 99.5z
M535 65q0 -88 62 -150t150 -62t150 62t62 150t-62 150t-150 62h-141h-71v-71v-141zM418 536v-141h-142q-58 0 -99.5 41t-41.5 99.5t41.5 100t100 41.5t100 -41.5t41.5 -99.5zM488 536q0 87 -62 149.5t-149.5 62.5t-149.5 -62.5t-62 -150t62 -149.5t149 -62h142h70v71v141z
M606 536v-141h141q59 0 100 41t41 99.5t-41 100t-99.5 41.5t-100 -41.5t-41.5 -99.5zM535 536v0q0 87 62 149.5t150 62.5t150 -62.5t62 -150t-62 -149.5t-150 -62h-141h-71v71v141z" />
    <glyph glyph-name="pinglun1" unicode="&#xe703;" 
d="M892 573h-616q-18 0 -31 -12.5t-13 -31.5v-117q-129 -78 -147 -90q-7 -4 -7 -12.5t7 -12.5q56 -35 147 -90v-117q0 -18 13 -31t31 -13h616q18 0 30.5 13t12.5 31v439q0 19 -12.5 31.5t-30.5 12.5v0zM430 222q-37 0 -62.5 25.5t-25.5 62t25.5 62.5t62 26t62.5 -26
t26 -62.5t-26 -62t-62 -25.5v0zM738 222q-37 0 -62.5 25.5t-25.5 62t25.5 62.5t62.5 26q36 0 61.5 -26t25.5 -62.5t-25.5 -62t-61.5 -25.5v0zM738 222z" />
    <glyph glyph-name="duihua" unicode="&#xe62b;" 
d="M911 368q0 98 -55.5 181t-151 131t-207.5 48t-207.5 -48t-151 -131t-55.5 -181q0 -89 47.5 -167.5t131.5 -129.5v-116q0 -12 11 -17q4 -2 9 -2t10 3l53 35q1 1 3 2l60 40q46 -8 89 -8q112 0 207.5 48t151 131t55.5 181zM497 46q-43 0 -89 9q-8 2 -14 -2l-70 -47
q-2 -1 -3 -2l-20 -13v91q0 11 -10 17q-80 45 -125 116.5t-45 152.5q0 87 50.5 161.5t137 117.5t188.5 43t188.5 -43t137 -117.5t50.5 -161.5t-50.5 -161.5t-137 -117.5t-188.5 -43zM929 275q41 -56 41 -122q0 -58 -32 -109t-89 -83q-10 -6 -10 -17v-57l-6 4l-2 2l-52 34
q-6 4 -14 3q-68 -14 -130 -0.5t-112 50.5l-23 -31q55 -41 123.5 -56.5t141.5 -2.5l42 -28q1 -1 2 -1l39 -26q5 -3 10 -3t10 2q10 6 10 17v82q62 38 96.5 96t34.5 124q0 79 -49 145zM302.5 436q-32.5 0 -55.5 -23t-23 -55t23 -55t55.5 -23t55 23t22.5 55t-22.5 55t-55 23z
M302.5 308q-20.5 0 -35 14.5t-14.5 35.5t14.5 35.5t35 14.5t35 -14.5t14.5 -35.5t-14.5 -35.5t-35 -14.5zM498.5 436q-32.5 0 -55.5 -23t-23 -55t23 -55t55.5 -23t55 23t22.5 55t-22.5 55t-55 23zM498.5 308q-20.5 0 -35 14.5t-14.5 35.5t14.5 35.5t35 14.5t35 -14.5
t14.5 -35.5t-14.5 -35.5t-35 -14.5zM694 436q-32 0 -55 -23t-23 -55t23 -55t55 -23t55 23t23 55t-23 55t-55 23zM694 308q-21 0 -35.5 14.5t-14.5 35.5t14.5 35.5t35.5 14.5t35.5 -14.5t14.5 -35.5t-14.5 -35.5t-35.5 -14.5z" />
    <glyph glyph-name="shijian2" unicode="&#xe6c1;" 
d="M797 325h99v-56h-99v56zM519 61h56v-99h-56v99zM804 514l-70 -70l-39 40l70 70zM765 40l-70 70l39 39l70 -70zM389 147l131 132v266h85v-300q-157 -156 -157 -157zM570 757v-79q101 0 187.5 -50.5t136.5 -136.5t50 -187.5t-50 -187.5t-136.5 -136.5t-187.5 -50.5
q-141 0 -246.5 93.5t-124.5 230.5l57 -56l57 57l-156 156l-157 -156l57 -57l61 62q12 -114 74.5 -207.5t162 -147.5t215.5 -54q92 0 176 36t145 96.5t97 144.5t36 176.5t-36 176.5t-97 144.5t-145 96.5t-176 36z" />
    <glyph glyph-name="qq01" unicode="&#xe68d;" 
d="M512 561q-84 0 -143 -72q-61 -73 -64 -182q0 -5 -2 -9v0q-8 -12 -8 -14q-1 -1 -4 -6.5t-5 -8.5q-16 -34 -20 -70q-4 -26 3 -33v0q0 1 1 1q6 3 15 11q6 6 11 14q4 5 11 6.5t12 -2.5q5 -5 6 -8v0q5 -13 14 -31q8 -16 17 -29q4 -6 3 -13t-7 -10l-5 -3q-17 -6 -27 -15
q-7 -7 -7 -12q0 -12 26 -24q32 -15 79 -15q26 0 50 5q23 5 37 14q10 5 18 0q16 -9 37 -14q22 -5 50 -5q46 0 79 15q25 12 25 24q0 5 -6 12q-11 9 -28 15q-16 6 -10 22v1l1 2v0q2 3 18 29q6 10 14 31q2 7 8.5 10t12.5 0q7 -3 9 -6q6 -8 10 -12q8 -10 15 -12l1 -1v0q6 6 3 33
q-4 34 -20 69h-1q-6 13 -8 15q-2 3 -5 8.5l-3 5.5q-2 5 -2 9q-3 107 -64 182q-66 73 -147 73v0zM343 511q69 85 169 85t169 -85q67 -82 71 -198q6 -11 7 -12q1 -2 3 -5t3.5 -6t2.5 -6q0 -1 1 -1q20 -41 23 -79q6 -44 -13 -61q0 -1 -1.5 -1.5t-1.5 -1.5q-14 -10 -33 -3
q-12 5 -22 15q-3 -7 -5 -9q-1 -3 -4 -8t-4 -8q11 -5 21 -15q17 -17 17 -36q0 -33 -44 -55q-39 -17 -92 -17q-31 0 -57 7q-22 4 -39 13q-15 -8 -39 -13q-28 -7 -58 -7q-53 0 -92 17q-44 20 -44 55q0 19 17 36q10 9 21 15q-5 7 -9 16q0 1 -2 4.5t-3 5.5q-10 -10 -21 -15
q-19 -8 -33 3q-1 1 -2 1.5t-1 1.5q-19 17 -14 61q4 38 24 79l9 18q6 8 8 11q1 55 21 109.5t47 88.5zM268 167v0v0zM756 167v0v0z" />
    <glyph glyph-name="iconfontmokuaiguanli" unicode="&#xe741;" 
d="M548 252q0 20 -7.5 37t-20.5 29.5t-30.5 20t-37.5 7.5h-257q-19 0 -36.5 -7.5t-31 -20t-21 -29.5t-7.5 -37v-251q0 -19 7.5 -37t21 -30.5t31 -20t36.5 -7.5h257q20 0 37.5 7.5t30.5 20t20.5 30.5t7.5 37v251zM879 73q26 0 44.5 18.5t18.5 43.5v147q0 26 -18.5 44.5
t-44.5 18.5h-153q-26 0 -45 -18.5t-19 -44.5v-147q0 -25 19 -43.5t45 -18.5h153zM879 403q26 0 44.5 18t18.5 44v148q0 25 -18.5 43.5t-44.5 18.5h-153q-26 0 -45 -18.5t-19 -43.5v-148q0 -26 19 -44t45 -18h153zM484 403q26 0 45.5 18t19.5 44v148q0 25 -19.5 43.5
t-45.5 18.5h-152q-26 0 -45 -18.5t-19 -43.5v-148q0 -26 19 -44t45 -18h152z" />
    <glyph glyph-name="xiangji" unicode="&#xe6c2;" 
d="M881 -87h-39v0h-660v0h-39q-32 0 -54.5 22.5t-22.5 54.5v523q0 32 22.5 54.5t54.5 22.5h39v0v0h126l49 78q0 7 14.5 13t24.5 6h232q10 0 24.5 -6t14.5 -13l49 -78h126h39q32 0 54.5 -22.5t22.5 -54.5v-523q0 -32 -22.5 -54.5t-54.5 -22.5zM512 513q-104 0 -178 -74
t-74 -178t74 -177.5t178 -73.5t178 73.5t74 177.5v0q0 105 -74 178.5t-178 73.5zM512 87q-72 0 -123.5 51t-51.5 123t51.5 123t123.5 51t123.5 -51t51.5 -123t-51.5 -123t-123.5 -51z" />
    <glyph glyph-name="shenpibaoxiao1" unicode="&#xe70f;" 
d="M248 235h554v-64h-554v64zM248 37h554v-64h-554v64zM546 434h256v-64h-256v64zM601 632h201v-64h-201v64zM848 -186h-672q-33 0 -56.5 24.5t-23.5 59.5v804q0 35 23.5 59.5t56.5 24.5h672q33 0 56.5 -24.5t23.5 -59.5v-804q0 -35 -23.5 -59.5t-56.5 -24.5zM176 722
q-6 0 -11 -6t-5 -14v-804q0 -8 5 -14t11 -6h672q6 0 11 6t5 14v804q0 8 -5 14t-11 6h-672zM372.5 293q-13.5 0 -22.5 9.5t-9 22.5v168q0 13 9 22.5t22.5 9.5t23 -9.5t9.5 -22.5v-168q0 -13 -9.5 -22.5t-23 -9.5zM375 467q-12 0 -21 8q-10 9 -11 22t8 23l108 128
q8 10 21.5 11t23.5 -7.5t11 -21.5t-8 -23l-108 -128q-9 -12 -24 -12zM373 468q-15 0 -25 11l-108 128q-8 10 -7 23t11 21.5t23 7.5t22 -11l108 -128q9 -10 8 -23t-12 -22q-8 -7 -20 -7zM456 439h-167q-13 0 -22.5 9.5t-9.5 22.5t9.5 22.5t22.5 9.5h167q13 0 22.5 -9.5
t9.5 -22.5t-9.5 -22.5t-22.5 -9.5zM456 368h-167q-13 0 -22.5 9t-9.5 22.5t9.5 23t22.5 9.5h167q13 0 22.5 -9.5t9.5 -23t-9.5 -22.5t-22.5 -9z" />
    <glyph glyph-name="analysis_report" unicode="&#xe6f3;" horiz-adv-x="1053" 
d="M1008 -133h-963q-18 0 -30 -12t-12 -29.5t12 -29.5t30 -12h963q17 0 29 12t12 29.5t-12 29.5t-29 12zM137 -49h111q20 0 34.5 14.5t14.5 34.5v413q0 20 -14.5 34.5t-34.5 14.5h-111q-20 0 -34.5 -14.5t-14.5 -34.5v-413q0 -20 14.5 -34.5t34.5 -14.5zM476 -49h111
q20 0 34.5 14.5t14.5 34.5v744q0 20 -14.5 34.5t-34.5 14.5h-111q-20 0 -34.5 -14.5t-14.5 -34.5v-744q0 -20 14.5 -34.5t34.5 -14.5zM804 -49h111q20 0 34.5 14.5t14.5 34.5v585q0 21 -14.5 35.5t-34.5 14.5h-111q-20 0 -34.5 -14.5t-14.5 -35.5v-585q0 -20 14.5 -34.5
t34.5 -14.5z" />
    <glyph glyph-name="jisu" unicode="&#xe65e;" 
d="M542 760l291 -93l-241 -230l172 -107l-563 -494l152 402l-162 101l351 421v0zM542 760z" />
    <glyph glyph-name="qiandao" unicode="&#xe6d1;" horiz-adv-x="1176" 
d="M944 543l-1 1q-66 116 -184 187.5t-256 71.5q-103 0 -196 -40t-160 -107.5t-107 -160.5t-40 -195q0 -179 112 -316.5t284 -174.5q52 -12 107 -12v0q11 0 19.5 8.5t8.5 20.5t-8.5 20t-19.5 8q-49 0 -95 10q-153 34 -252 156t-99 280q0 91 35 173.5t95 142t142.5 95
t173.5 35.5q121 0 227.5 -64t165.5 -170q0 -1 1 -1q8 -12 23 -12q11 0 19.5 8.5t8.5 20.5q0 8 -4 15v0zM716 -37l324 445q13 19 36.5 22.5t42.5 -10.5l15 -11q19 -14 23 -37t-10 -42l-323 -445zM705 -53l108 -78l-130 -65zM293.5 385q27.5 0 47 19.5t19.5 47t-19.5 47
t-47 19.5t-46.5 -19.5t-19 -47t19 -47t46.5 -19.5zM692.5 385q27.5 0 47 19.5t19.5 47t-19.5 47t-47 19.5t-47 -19.5t-19.5 -47t19.5 -47t47 -19.5zM238 185q26 -88 99.5 -143t165.5 -55q91 0 164.5 55t98.5 142q5 15 -2.5 29t-22.5 18.5t-29 -3t-18 -22.5
q-19 -64 -72 -103.5t-119.5 -39.5t-119.5 40t-72 103q-4 15 -18 22.5t-29 3.5t-22.5 -18t-3.5 -29z" />
    <glyph glyph-name="xiugai" unicode="&#xe674;" 
d="M512 781q-98 0 -187 -38.5t-153 -102.5t-102.5 -153t-38.5 -187t38.5 -187t102.5 -153t153 -102.5t187 -38.5t187 38.5t153 102.5t102.5 153t38.5 187t-38.5 187t-102.5 153t-153 102.5t-187 38.5zM243 31l59 157l93 -92zM419 109l-100 105l280 276l97 -100zM776 467
l-56 -58l-101 101l49 50l7.5 5t18 3.5t27 -9t27 -22t20.5 -20.5l8 -7q13 -29 0 -43z" />
    <glyph glyph-name="xiaoshouyingxiongbang" unicode="&#xe61e;" 
d="M475 319h69v-158h-69v158zM759 722h140v-41q1 -12 -2.5 -32t-14.5 -50.5t-28 -57t-48.5 -47.5t-71.5 -26q9 19 12 41q4 2 11 4.5t25.5 15.5t33 30t28 49t16.5 71h-102zM264 723h-143v-40q0 -12 3 -32.5t14.5 -51t29 -56.5t49.5 -47.5t73 -26.5q-9 19 -12 42q-5 1 -12 4
t-25.5 16t-33.5 30t-29 49t-17 71h105zM433 359h154v-40h-154v40zM433 161h154v-47h-154v47zM319 -63l45 177h294l45 -177h-384zM166 833v-43h60q14 -2 23.5 -11t11.5 -20l2 -38v-179q0 -9 3 -19.5t7.5 -20t8.5 -18t7 -13.5l3 -5q14 -25 34 -45t38 -31t34 -18.5t25 -9.5
l10 -3h155q21 2 43 13.5t39.5 27t31.5 30.5t22 25l8 10q23 29 26 86q2 19 2 61v74l-1 33v34q0 15 9.5 24.5t19.5 11.5l10 2h58v42h-690zM510.5 477q-51.5 0 -87.5 36t-36 87.5t36 88t87.5 36.5t88 -36.5t36.5 -88t-36.5 -87.5t-88 -36zM511 683l27 -54l60 -9l-44 -42l10 -60
l-53 28l-54 -28l10 60l-43 42l60 9z" />
    <glyph glyph-name="fenxiang2" unicode="&#xe660;" 
d="M932 231q-14 0 -24 -9.5t-10 -24.5v-245q0 -15 -10.5 -26t-26.5 -11h-709q-15 0 -26 11t-11 26v611q0 16 11 26.5t26 10.5h332q14 1 24 10.5t10 23.5t-10 24t-24 10h-337q-41 0 -70.5 -29.5t-29.5 -70.5v-621q0 -41 29.5 -70.5t70.5 -29.5h719q41 0 70.5 29.5t29.5 70.5
v251q0 14 -10 23.5t-24 9.5zM1006 511v0l-232 233l-8 7l-1 -1q-7 5 -16 5q-15 0 -25.5 -10.5t-10.5 -24.5q0 -10 5 -17l-1 -1l162 -163h-166q-80 -10 -139.5 -36.5t-97.5 -64.5t-63.5 -95t-37.5 -119t-19 -145q0 -15 10.5 -25t24.5 -10q12 0 21.5 7t12.5 18l2 9
q6 79 16.5 133.5t30.5 102.5t50.5 78t77.5 50t112 27h165l-155 -155l-6 -9q-4 -7 -4 -15q0 -15 10.5 -25.5t24.5 -10.5q9 0 17 4l239 238q5 4 5 8t-4 7z" />
    <glyph glyph-name="yonghu" unicode="&#xe687;" 
d="M614.5 752q-105.5 0 -180 -74.5t-74.5 -179.5q0 -72 37 -132t98 -93q-127 -39 -207.5 -146.5t-80.5 -243.5q0 -10 7 -17t17 -7t17 7t7 17q0 98 48 180.5t130.5 131t179.5 48.5q4 -1 7 0q104 3 176.5 77t72.5 178q0 105 -74.5 179.5t-180 74.5zM614.5 292
q-85.5 0 -145.5 60.5t-60 145.5t60 145.5t145.5 60.5t146 -60.5t60.5 -145.5t-60.5 -145.5t-146 -60.5zM904 171q-8 8 -18 8t-17 -7.5t-7 -17.5t7 -17q51 -51 78 -116.5t27 -137.5q0 -10 7 -17t17 -7t17.5 7t7.5 17q0 82 -31 156.5t-88 131.5v0zM358 286v0v0q0 10 -7.5 17
t-17.5 7q-66 0 -113 50t-47 121t47 121t113 50q10 0 17.5 7t7.5 17t-7.5 17t-17.5 7q-86 0 -147 -64t-61 -155q0 -59 28 -109.5t75 -79.5q-100 -36 -163 -127t-63 -205q0 -10 7 -17t17 -7t17.5 7t7.5 17q0 125 82.5 213t199.5 88q10 0 17.5 7.5t7.5 17.5v0zM358 286z" />
    <glyph glyph-name="jihui" unicode="&#xe729;" horiz-adv-x="1048" 
d="M13 313l59 -31q3 -2 7.5 -3.5t15.5 1t18 15.5l143 317q13 29 -8 41l-64 31q-1 1 -2 1.5t-5.5 1.5t-8.5 0t-8.5 -5t-8.5 -11q0 -4 -37 -85t-74 -159l-37 -78q-11 -26 10 -36v0zM970 282l59 28q1 1 3 2t6.5 4.5t6 8t3 11.5t-3.5 15l-148 315q-1 3 -4 7.5t-12.5 10
t-19.5 0.5l-64 -33q-2 -1 -4.5 -3.5t-7.5 -12t2 -20.5q3 -4 41 -84t74 -158l36 -78q0 -1 1 -2.5t4.5 -5t7 -5t9.5 -3t11 2.5v0zM154 282l20 44l69 -93q5 2 13.5 2.5t25 -3.5t23.5 -16l3 -6t5.5 -17.5t-1.5 -28.5q11 -7 11 -10q30 8 48 -15q2 -2 5 -5.5t7.5 -14t3.5 -21.5
q12 -5 15 -13q31 8 46 -10q18 -18 18 -39l28 -20q26 -3 31 -23l25 -21q2 0 5 -1t10 -2t12.5 1t10.5 9t6 19l-95 77q0 1 -0.5 3t-0.5 7t1.5 8.5t7.5 6t15 0.5l144 -105q2 -1 6.5 -2t14.5 2t17 13q13 21 -5 41l-156 110q-1 1 -1.5 3.5t-1 7.5t1 8.5t7 6.5t14.5 2l179 -133
q26 -10 36 10q16 21 0 41l-197 151q0 2 -0.5 4t-1 8.5t2 9t8 5.5t17.5 -1l205 -151q3 -1 8.5 -2t17 2.5t17.5 14.5l4.5 9t1.5 18.5t-11 24.5l-289 263q-3 1 -6.5 2.5t-14.5 3t-21 0t-22 -10t-21 -23.5q0 -4 -1 -10t-7 -23t-16 -30.5t-30.5 -26.5t-47.5 -17h-4t-9 1.5
t-12 3.5t-12.5 6t-10.5 9.5t-5.5 13t2.5 17.5q2 3 5.5 8.5t8.5 27.5t3 48q3 41 29 75h-105l23 48h156q7 4 19 10.5t42 16.5t52 9q64 -3 79 -13q9 -3 24.5 -7.5t48.5 -10.5t50 -2l143 -307l-23 -54q2 -2 4.5 -5.5t8 -13.5t8 -21t0.5 -26.5t-11 -31.5q-6 -14 -23.5 -24.5
t-42.5 -10.5q-1 -2 0 -10t-4 -23t-17 -24q-2 -3 -6 -7t-20 -9t-35 -2q2 -30 -26 -53q-1 -2 -4 -3.5t-12 -5t-18.5 -4t-24.5 4.5t-30 15q-1 -4 -3.5 -10t-15.5 -18t-33 -15q-30 -5 -48 13q-2 -3 -4.5 -7t-10.5 -13t-16.5 -14.5t-22 -5t-26.5 10.5l-3 3t-6 8.5t-6 13.5
t-0.5 17t8.5 20q-2 -3 -5 -7t-12.5 -13t-19.5 -13t-23.5 -0.5t-26.5 18.5q-1 0 -2.5 2t-5 7.5t-4.5 12.5t1 18t8 24q-1 -2 -4 -5t-12 -8.5t-18 -7.5t-21.5 1.5t-23.5 13.5l-3 3t-5.5 8.5t-5 14t0 19.5t8.5 25l-5 -5t-12 -9t-18.5 -8t-23 2t-26.5 17q-2 2 -4 6t-6 19t3 34
l43 61l-61 77v0zM154 282z" />
    <glyph glyph-name="shanchu" unicode="&#xe691;" 
d="M512 -212q139 0 257 68.5t186.5 186.5t68.5 257t-68.5 257t-186.5 186.5t-257 68.5t-257 -68.5t-186.5 -186.5t-68.5 -257t68.5 -257t186.5 -186.5t257 -68.5zM256 321h512v-42h-512v42z" />
    <glyph glyph-name="xindingdantishi" unicode="&#xe726;" 
d="M512 803q-102 0 -195.5 -40t-160.5 -107.5t-107 -160.5t-40 -195t40 -195t107 -160.5t160.5 -107.5t195.5 -40t195 40t160.5 107.5t107.5 160.5t40 195t-40 195t-107.5 160.5t-160.5 107.5t-195 40zM243 531h127q-14 26 -29 53l38 17q18 -30 34 -60l-20 -10h126v-38h-276
v38zM224 394h95q-25 40 -47 69l31 22q21 -24 51 -66l-34 -25h78q33 48 59 92l42 -24q-27 -35 -54 -68h89v-37h-310v37zM224 102q29 45 62 118l40 -19q-33 -68 -63 -120q-17 11 -39 21zM403 93q0 -63 -60 -63q-21 0 -57 1q-2 19 -7 45q35 -4 54 -4q28 0 28 30v145h-120v37
h120v56h42v-56h116v-37h-116v-154zM421 194l35 23q32 -45 57 -82l-37 -26q-26 44 -55 85zM811 330h-84v-308h-43v308h-88v-29q0 -181 -86 -281q-15 18 -31 37q76 83 76 246v246q121 1 225 24l15 -45q-116 -16 -199 -20v-138h215v-40v0z" />
    <glyph glyph-name="beizhu" unicode="&#xe635;" 
d="M818 692q3 0 4 -1l88 -88q2 -1 2 -4q0 -4 -4 -7l-26 -26v0l-27 -27l-269 -267l-137 -39l39 136l280 279v0l14 13l28 28q3 3 8 3zM818 739q-24 0 -41 -16l-28 -28v0l-303 -301l-66 -230l231 65l277 276v0l54 53q17 18 17 41t-15 38l-88 87q-15 15 -38 15v0zM796 -147h-607
q-52 0 -88.5 36.5t-36.5 88.5v607q0 51 36.5 88t88.5 37h388v-48h-388q-32 0 -54.5 -22.5t-22.5 -54.5v-607q0 -32 22.5 -55t54.5 -23h607q32 0 55 23t23 55v388h47v-388q0 -52 -36.5 -88.5t-88.5 -36.5z" />
    <glyph glyph-name="shanchu1" unicode="&#xe675;" 
d="M984 499q-39 92 -110 163t-163 110q-95 40 -199 40t-199 -40q-92 -39 -163 -110t-110 -163q-40 -95 -40 -199t40 -199q39 -92 110 -163t163 -110q95 -40 199 -40t199 40q92 39 163 110t110 163q40 95 40 199t-40 199zM723 83v0q-10 -10 -25 -10t-26 10l-164 164
l-164 -164h-1q-10 -11 -25 -11t-26 11t-11 26t11 25l164 165l-164 164q-11 11 -11 26t11 25v0q10 11 25 11t26 -11l164 -164l164 165h1q10 10 25 10t26 -10.5t11 -25.5t-11 -26l-164 -164l164 -164q11 -11 11 -26t-11 -26z" />
    <glyph glyph-name="jiantouyou" unicode="&#xe74d;" 
d="M414 556l-60 -60l197 -196l-197 -197l60 -59l256 256z" />
    <glyph glyph-name="statistic" unicode="&#xe76a;" 
d="M144 78h769v-63h-769v63zM143 787h64v-764h-64v764zM493 698h63v-587h-63v587zM684 549h64v-438h-64v438zM301 401h64v-290h-64v290z" />
    <glyph glyph-name="zhaopian" unicode="&#xe6de;" 
d="M120 -78h784q23 0 39.5 16.5t16.5 39.5v644q0 23 -16.5 39.5t-39.5 16.5h-784q-23 0 -39.5 -16.5t-16.5 -39.5v-644q0 -23 16.5 -39.5t39.5 -16.5zM120 -22v165l225 218l231 -232q8 -8 19 -8t20 7l102 93l185 -189q1 -2 2 -2v-52h-784v0zM904 622v-513l-165 169
q-7 7 -17.5 8t-18.5 -6l-106 -92l-232 230q-7 9 -19 10q-13 0 -21 -8l-205 -199v401h784zM708 398q23 0 39.5 16.5t16.5 39.5t-16.5 39.5t-39.5 16.5t-39.5 -16.5t-16.5 -39.5t16.5 -39.5t39.5 -16.5z" />
    <glyph glyph-name="jihua" unicode="&#xe66c;" 
d="M511 748q-91 0 -173.5 -35.5t-142.5 -95.5t-95.5 -142.5t-35.5 -173.5t35.5 -174t95.5 -143t142.5 -95t173.5 -35t174 35t143 95t95 143t35 174t-35 173.5t-95 142.5t-143 95.5t-174 35.5v0zM511 -127q-116 0 -214.5 57.5t-155.5 156t-57 214.5t57 214.5t155.5 155.5
t214.5 57t214.5 -57t155.5 -155.5t57 -214.5t-57 -214.5t-155.5 -156t-214.5 -57.5v0zM308 423h61v60h-61v-60v0zM308 283h61v60h-61v-60v0zM308 143h61v60h-61v-60v0zM449 443h281v21h-281v-21v0zM449 303h281v20h-281v-20v0zM449 162h281v20h-281v-20v0zM449 162z" />
    <glyph glyph-name="kaiguanguan" unicode="&#xe681;" 
d="M714 608h-404q-127 0 -217.5 -90t-90.5 -217.5t90.5 -218t217.5 -90.5h404q128 0 218 90.5t90 218t-90 217.5t-218 90zM302 21q-31 0 -61 6q-21 6 -40 14q-51 21 -90 60t-60 90q-22 52 -22 109t22 110q21 50 60 89t90 60q15 7 32 12q34 8 69 8q116 0 198 -81.5t82 -197.5
t-82 -197.5t-198 -81.5zM913 101q-39 -39 -89 -60q-53 -22 -110 -22h-326q14 5 29 10q52 23 93 63.5t63 93.5q23 54 23 114t-23 114q-22 53 -63 93.5t-93 63.5q-15 6 -30 10h327q57 0 110 -22q50 -21 89 -60t60 -89q22 -53 22 -110t-22 -109q-21 -51 -60 -90z" />
    <glyph glyph-name="dagou" unicode="&#xe75d;" 
d="M356 142q15 17 42 44.5t105.5 102.5t151.5 139t165 131.5t163 101.5q0 1 1.5 1t5.5 0.5t7.5 0t6.5 -4t4 -9.5t-13 -22t-45 -45.5t-69 -67t-94 -99t-111 -128.5q-61 -74 -115.5 -162t-78.5 -136.5t-24 -51.5h-179q-43 103 -102 193q-28 43 -64 89.5t-54.5 67t-22.5 24.5
q0 2 0.5 4t2.5 6.5t6 6.5t11.5 1.5t18.5 -5.5q78 -42 281 -181v-1z" />
    <glyph glyph-name="wendangguanli" unicode="&#xe72e;" 
d="M209 293q7 0 12.5 5.5t5.5 13.5v222q0 8 -5.5 13.5t-13 5.5t-13 -5.5t-5.5 -13.5v-222q0 -8 5.5 -13.5t13.5 -5.5v0zM170 99v0q18 -18 44 -18t43 17v0l1 1v0q18 18 18 44t-18 44v0v0q-18 19 -44 19t-44 -19v0q-18 -18 -18 -44q0 -25 17 -43l1 -1v0zM196 161v0q7 7 18 7
t18 -7v0q7 -7 7 -18t-7 -18v0q-7 -7 -18 -7t-18 7h-1q-7 8 -7 18q0 11 8 18v0zM716 170v0q0 -27 18 -45q19 -18 44 -18t44 18q19 19 19 45q0 25 -18 43l-1 1q-18 18 -43.5 18t-44.5 -18q-18 -19 -18 -44v0zM760 188v0q7 7 18 7t18 -7l1 -1q7 -7 7 -17.5t-8 -18.5
q-7 -7 -18 -7t-18 7q-7 8 -7 18.5t7 18.5v0zM790 680v0q-3 13 -14 19t-24 3l-182 -49q-9 14 -26 14h-447q-13 0 -22 -9t-9 -21v-645q0 -13 9 -22t22 -9h447q13 0 22 9t9 22v389l106 -397q4 -12 15 -18.5t23 -3.5l216 58q13 3 19 14t3 24l-167 622v0zM302 23v0h-174v583h174
v-583v0zM513 23v0h-174v583h174v-583v0zM733 30v0l-151 563l157 42l151 -563l-157 -42v0zM433 81v0q25 0 43 18q19 17 19 44q0 25 -18 43l-1 1q-18 19 -43 19q-26 0 -44.5 -18.5t-18.5 -44.5q0 -27 18 -44q19 -18 45 -18v0zM415 161v0q6 7 18 7q10 0 17 -7l1 -1q7 -7 7 -17
q0 -11 -8 -18q-6 -7 -17 -7q-12 0 -18 7q-8 8 -8 18t8 18v0zM433 293v0q7 0 12.5 5.5t5.5 13.5v222q0 8 -5.5 13.5t-13 5.5t-13 -5.5t-5.5 -13.5v-222q0 -8 5.5 -13.5t13.5 -5.5v0zM674 563v0q-7 -2 -11 -9t-2 -14l58 -215q2 -8 8.5 -11.5t13.5 -1.5q8 2 11.5 8.5t1.5 14.5
l-57 215q-2 7 -9 11t-14 2v0z" />
    <glyph glyph-name="delete" unicode="&#xe77e;" 
d="M708 620v115h-392v-115h-168v-112h56v-590q0 -41 17 -59t56 -18h459q46 0 65 18.5t19 65.5v583h56v112h-168zM372 7h-56v450h56v-450zM372 679h280v-58h-280v58zM484 7h-56v448h56v-448zM596 7h-56v448h56v-448zM708 7h-56v450h56v-450zM708 620v115h-392v-115h-168v-112
h56v-590q0 -41 17 -59t56 -18h459q46 0 65 18.5t19 65.5v583h56v112h-168zM372 7h-56v450h56v-450zM372 679h280v-58h-280v58zM484 7h-56v448h56v-448zM596 7h-56v448h56v-448zM708 7h-56v450h56v-450z" />
    <glyph glyph-name="yuangongguanli" unicode="&#xe723;" 
d="M616 610q19 -4 31.5 -20t13.5 -41q0 -7 1 -23t1 -33t-1 -31.5t-5 -17.5q-5 -6 -9.5 -5.5t-4.5 -4.5q0 -3 -1 -17.5t-7 -41.5q-4 -14 -10 -25t-13 -21l-16 -18q-1 -11 -1 -21v-17q0 -9 1 -14q1 -10 5 -14t16 -8q5 -1 15 -5q11 -3 26 -8q5 -2 15.5 -6t15.5 -6q21 -7 31 -11
q14 -5 27 -10q10 -4 17 -7q17 -8 22.5 -17t9.5 -23q2 -7 5 -28q2 -18 6 -41q3 -22 5 -41t3 -24q1 -11 -3.5 -18.5t-21.5 -11.5q-14 -3 -41 -7q-29 -4 -63 -7q-36 -3 -78 -5q-43 -3 -90 -3q-49 0 -91 2q-44 2 -79 5q-36 3 -64 6q-28 4 -44 8q-3 1 -8 3.5t-9.5 6t-7 9
t-1.5 12.5q0 4 4 26q4 23 9 44t9 43q4 21 6 25q3 10 9 21q7 11 22 23q7 5 27 12t42 13q21 5 40 10q19 4 25 5q13 3 22.5 6.5t9.5 10.5v48q-9 8 -18 17q-7 7 -14.5 17.5t-13.5 22.5q-12 22 -15 41t-4 22t-6.5 5t-7.5 9q-7 14 -6 30q0 15 2 44t9 56t31 49q13 11 33.5 18
t42.5 10.5t41.5 3.5t29.5 -3t17 -7t10.5 -7t6.5 -6q2 -3 5 -5q4 -3 10.5 -2t23.5 -2v0zM539 155l23 -86l36 98l-35 25zM479 193l-33 -26l38 -98l20 87zM775 518q12 -2 19 -12t8 -24q0 -4 0.5 -13.5t0.5 -19.5t-0.5 -18.5t-2.5 -10.5q-3 -3 -6 -3t-3 -3q0 -2 -0.5 -10.5
t-4.5 -25.5q-2 -8 -5 -14.5t-7 -11.5q-5 -6 -10 -11q-1 -6 -1 -12v-19q1 -6 3 -8.5t10 -4.5q2 0 16 -5q13 -4 27 -9q17 -7 27 -10q12 -5 17 -7q10 -5 14 -10.5t5 -14.5q1 -4 3 -16q1 -11 3 -25l4 -24q1 -11 1 -14q1 -7 -2 -11.5t-13 -6.5q-7 -1 -21 -4q-13 -2 -35 -4
q-2 10 -5 19q-3 8 -6 18q-3 9 -8 15q-9 13 -19.5 20.5t-19.5 12.5q-11 5 -20 8q-12 3 -20 6q-42 15 -68 21q-26 5 -29 10q-2 2 -2.5 5.5t-0.5 7.5t1 9q12 3 17.5 4t8.5 2q7 1 13 3.5t6 6.5v29l-2 1l-3 1q-2 1 -4 4q5 11 10 26q4 13 9 33q5 18 8 45q2 21 3 38q1 16 1 29v25
q10 2 21.5 2t17.5 -2q14 -4 17 -8t6 -7q4 -1 7.5 -0.5t13.5 -1.5v0zM733 252l6 -22l15 -5l11 30l-17 15zM690 267l-14 -14v-3l26 -8l3 9zM321 536q-13 2 -27 1q-12 -1 -25.5 -4t-24.5 -12q-10 -6 -16 -15.5t-9 -19t-4 -17.5q-1 -9 -1 -13q0 -11 -1 -20t1 -15q1 -7 2 -9
q1 -3 3.5 -4.5t4 -2t3.5 -11.5q1 -11 5.5 -21t9.5 -17l6 -8q4 -4 7 -8t8 -8v-10v-14q0 -5 -3 -8.5t-11 -4.5q-5 -1 -14 -4q-3 0 -10 -2t-11 -3l-22 -6q-11 -4 -18 -6q-24 -12 -29 -40q-3 -12 -8 -33q-4 -22 -6 -28q-1 -9 1 -18t14 -11q5 -2 14 -3t17 -2q9 -2 19 -3
q2 10 5 20q3 9 7.5 18t10.5 18q7 7 17 14q8 6 18 14q11 8 22 14l-8 21l18 14l19 -22l10 3q2 0 5 1q2 1 3 1l16 19l14 -12l8 2q3 0 7 1l8 2q10 2 16 3.5t7 8.5q0 3 0.5 5t0.5 4v2q-9 3 -14 5l-12 3q-6 2 -9 4q-7 2 -7.5 6.5t-0.5 12.5v8v8q0 5 1 10q-6 10 -13 22
q-6 10 -11 23q-6 13 -9 27q-4 19 -6 40q-2 22 -1 39q0 21 3 41v0zM321 536z" />
    <glyph glyph-name="dianping" unicode="&#xe676;" 
d="M442 -37q119 0 202 92t102 241h-633q18 -146 112.5 -239.5t216.5 -93.5v0zM746 352v83h-633v-83h633v0zM909 303q-11 50 -47.5 84t-91.5 47q1 -15 1 -27q0 -2 0.5 -28t-0.5 -27q32 -14 46.5 -27t20.5 -39q11 -54 -29 -104t-108 -68q-1 0 -10 -1q-20 -36 -45 -66
q33 1 65 9q98 25 156 97.5t42 149.5v0zM113 -64q-1 -2 0 -28t93 -41t236 -15q146 0 237.5 14.5t91.5 41.5v28h-658v0zM495 540q0 -26 -25 -44.5t-51 -24.5l-25 -5q7 0 19 0.5t42 4.5t53.5 11t42 22t18.5 36q0 25 -30 41.5t-66 23.5t-66 20.5t-30 33.5q0 16 14 31.5t34 25.5
t40 17.5t33 10.5l14 4q-4 0 -12 -0.5t-31.5 -2.5t-44.5 -5.5t-47 -11.5t-44.5 -18.5t-31.5 -27.5t-13 -38q0 -25 21.5 -40.5t52 -22t61 -11t51.5 -11.5t21 -19v0zM495 540z" />
    <glyph glyph-name="seiyw33" unicode="&#xe6a9;" 
d="M512 -159q-91 0 -173.5 35.5t-142.5 95.5t-95.5 142.5t-35.5 173.5t35.5 173.5t95.5 142.5t142.5 95.5t173.5 35.5t173.5 -35.5t142.5 -95.5t95.5 -142.5t35.5 -173.5t-35.5 -173.5t-95.5 -142.5t-142.5 -95.5t-173.5 -35.5zM512 679q-106 0 -196 -52.5t-142.5 -142.5
t-52.5 -196t52.5 -196t142.5 -142.5t196 -52.5t196 52.5t142.5 142.5t52.5 196t-52.5 196t-142.5 142.5t-196 52.5zM690 443q6 10 3 21.5t-13 17t-21 2.5t-17 -13l-178 -309l-100 92q-8 9 -19.5 9t-20 -7.5t-9 -19.5t7.5 -20l128 -118q7 -8 19 -8.5t20 7.5q2 1 52 88
t99 172.5z" />
    <glyph glyph-name="baoxianzhushouicon16" unicode="&#xe637;" 
d="M410.5 331q-99.5 0 -171 70t-71.5 169q0 100 70.5 169.5t171.5 69.5t171.5 -69.5t70.5 -169.5q0 -99 -71 -169t-170.5 -70zM410 759q-80 0 -136.5 -56t-56.5 -136q0 -79 56 -133.5t137 -54.5t137.5 55.5t56.5 135.5q0 79 -57.5 134t-136.5 55zM484 -108h-150
q-32 0 -47.5 0.5t-43.5 1t-42.5 2t-37.5 4t-35.5 7t-29 10.5t-25 14t-17 18.5t-12 24.5t-3.5 31v15q0 120 86 205t207 85h150q51 0 104 -20q6 -1 28 -13q10 -4 13 -13.5t-2 -19.5q-4 -10 -14 -13t-19 3q-4 1 -12 5t-11 5q-42 15 -90 15h-147q-101 0 -173 -71t-72 -171v-15
q0 -11 4 -20t13.5 -15.5t20 -11.5t29 -8t34.5 -5t42.5 -2.5t47.5 -1t54 -0.5h183v0q9 0 16.5 -6.5t9.5 -16.5q0 -9 -7 -17t-16 -8zM769 -212q-101 0 -172.5 71.5t-71.5 173t71.5 173t173 71.5t173 -71.5t71.5 -172.5q-2 -102 -73.5 -173.5t-171.5 -71.5zM769.5 226
q-80.5 0 -138.5 -57t-58 -139t57 -139t139 -57t139 57t57 139t-57.5 139t-138 57zM660 30q0 10 6.5 16.5t16 6.5t16.5 -6.5t7 -16.5t-7 -16.5t-16 -6.5q-23 4 -23 23v0zM746 30q0 10 7 16.5t16.5 6.5t16 -6.5t6.5 -16.5t-6.5 -16.5t-16.5 -6.5q-9 2 -16 8.5t-7 14.5v0z
M833 30q0 10 6.5 16.5t16 6.5t16.5 -6.5t7 -16.5t-7 -16.5t-16 -6.5q-10 2 -16.5 8.5t-6.5 14.5v0zM833 30z" />
    <glyph glyph-name="tishi" unicode="&#xe6e8;" 
d="M511.5 748q-91.5 0 -174 -35.5t-142.5 -95.5t-95.5 -143t-35.5 -174t35.5 -174t95.5 -143t142.5 -95.5t174 -35.5t174.5 35.5t142.5 95.5t95 143t35.5 174t-35.5 174t-95 143t-142.5 95.5t-174.5 35.5zM510 -19q-27 0 -45.5 19t-18.5 46t18.5 45.5t45.5 18.5t46 -18.5
t19 -45.5t-19 -46t-46 -19zM595 462v-1v0v0v0v-1v0q-55 -254 -55 -255v0q-6 -30 -30 -30q-22 0 -30 32q-2 9 -15.5 71t-25.5 119t-12 58v0v0v0v1v0v0v1h-1v0v1v0v0v1v0v0v1v0v0v1v0v0v1v0q-2 9 -2 17q0 36 25 61.5t61 25.5t61.5 -25.5t25.5 -61.5q0 -8 -2 -17z" />
    <glyph glyph-name="zonglan" unicode="&#xe60a;" horiz-adv-x="1026" 
d="M514 812q-104 0 -199 -41t-163.5 -109.5t-109 -163t-40.5 -198.5t40.5 -198.5t109 -163t163.5 -109.5t199 -41t198.5 41t163 109.5t109 163t40.5 198.5t-40.5 198.5t-109 163t-163 109.5t-198.5 41zM513.5 -176q-96.5 0 -184.5 38t-151.5 101.5t-101.5 151.5t-38 185
t38 185t101.5 151.5t151.5 101.5t184.5 38t185 -38t152 -101.5t101 -151.5t37.5 -185t-37.5 -185t-101 -151.5t-152 -101.5t-185 -38zM280 478h49v-58h-49v58zM378 478h354v-58h-354v58zM280 316h49v-58h-49v58zM378 316h354v-58h-354v58zM280 173h49v-59h-49v59zM378 173
h354v-59h-354v59z" />
    <glyph glyph-name="pinglun2" unicode="&#xe705;" 
d="M322 -92q-6 0 -11 2q-15 7 -15 24v111q0 11 -7.5 18t-17.5 7h-128q-32 0 -55 23t-23 55v467q0 32 23 54.5t55 22.5h738q32 0 55 -22.5t23 -54.5v-467q0 -32 -23 -55t-55 -23h-350q-9 0 -16 -6l-176 -150q-7 -6 -17 -6zM143 640q-11 0 -18 -7.5t-7 -17.5v-467q0 -11 7 -18
t18 -7h128q32 0 54.5 -23t22.5 -55v-54l133 113q21 19 50 19h350q11 0 18 7t7 18v467q0 10 -7 17.5t-18 7.5h-738z" />
    <glyph glyph-name="guanli" unicode="&#xe6fe;" 
d="M124 781v0v0zM686 257zM377 539q0 65 -46 110.5t-110.5 45.5t-110 -45.5t-45.5 -110.5q0 -63 43 -108q-11 -47 -11 -96q0 -109 53 -202t142 -149l32 128q-49 41 -77 99t-28 124q0 25 4 48q64 1 109 46.5t45 109.5v0v0zM510 626q80 0 148 -40q-11 -27 -11 -56
q0 -65 46 -110.5t110.5 -45.5t110 45.5t45.5 110t-45.5 110t-110.5 45.5q-29 0 -57 -10q-106 74 -236 74q-87 0 -167 -35l72 -104q46 16 95 16v0v0zM801 322q-4 -78 -45.5 -143t-109.5 -101q-19 39 -56.5 62t-82.5 23q-64 0 -110 -45.5t-46 -110t46 -110.5t110 -46
q48 0 87 26.5t57 69.5q121 44 196.5 150t75.5 238v28l-122 -41v0v0zM801 322z" />
    <glyph glyph-name="baoxiao" unicode="&#xe715;" 
d="M804 826h-582q-67 0 -114 -50.5t-47 -121.5v-561q0 -71 47 -121.5t114 -50.5h582q67 0 114.5 50.5t47.5 121.5v561q0 71 -47.5 121.5t-114.5 50.5zM901 93q0 -44 -28.5 -75.5t-68.5 -31.5h-582q-40 0 -68.5 31.5t-28.5 75.5v561q0 44 28.5 75.5t68.5 31.5h582
q40 0 68.5 -31.5t28.5 -75.5v-561zM699 624q-10 9 -23.5 8t-22.5 -11l-139 -157l-135 157q-9 10 -22.5 11t-23.5 -7.5t-11 -22t8 -23.5l121 -141h-99q-14 0 -23.5 -9.5t-9.5 -22.5t9.5 -22.5t23.5 -9.5h129v-65h-129q-14 0 -23.5 -9.5t-9.5 -23t9.5 -23t23.5 -9.5h129v-161
q0 -14 9.5 -23.5t23 -9.5t22.5 9.5t9 23.5v161h130q13 0 22.5 9.5t9.5 23t-9.5 23t-22.5 9.5h-130v65h130q13 0 22.5 9.5t9.5 22.5t-9.5 22.5t-22.5 9.5h-98l125 140q9 10 8 23.5t-11 22.5z" />
    <glyph glyph-name="jihua1" unicode="&#xe66d;" 
d="M154 230l50 -48l153 158l225 -213l251 289l-53 46l-202 -234l-224 211zM512 812q-104 0 -199 -40.5t-163.5 -109t-109 -163.5t-40.5 -199t40.5 -199t109 -163.5t163.5 -109t199 -40.5t199 40.5t163.5 109t109 163.5t40.5 199t-40.5 199t-109 163.5t-163.5 109t-199 40.5z
M512 -157q-93 0 -177.5 36t-146 97.5t-97.5 146t-36 177.5t36 177.5t97.5 146t146 97.5t177.5 36t177.5 -36t146 -97.5t97.5 -146t36 -177.5t-36 -177.5t-97.5 -146t-146 -97.5t-177.5 -36z" />
    <glyph glyph-name="zhuye" unicode="&#xe72b;" 
d="M856 458q-29 1 -53 54t-34.5 104.5t-9.5 69.5h-247h-247q1 -18 -9.5 -69.5t-34.5 -104.5t-53 -54q-63 -1 -95 129q1 -49 8.5 -90t18.5 -66.5t25.5 -45t27 -28.5t25 -14.5t17.5 -6.5t7 -1h3v-421h172v212q0 62 32.5 90.5t102 28.5t102 -28.5t32.5 -90.5v-212h173v421h3
q2 0 6.5 1t17.5 6.5t25 14.5t27 28.5t25.5 45t18.5 66.5t9 90l-1 -4l-3 -12t-5 -17.5t-7.5 -20.5t-10 -21.5t-12.5 -20.5t-15.5 -17.5t-19 -11.5t-21.5 -4z" />
    <glyph glyph-name="xiangxiajiantou" unicode="&#xe699;" 
d="M131 534l381 -411l381 411q8 8 18 8t17.5 -8t7.5 -19t-8 -19l-376 -405q-17 -21 -22 -25q-7 -9 -18 -8q-11 -1 -18 8q-3 2 -27 28.5t-24 27.5l-347 374q-8 8 -8 19t7.5 19t18 8t17.5 -8v0z" />
    <glyph glyph-name="renminbi" unicode="&#xe6e0;" 
d="M858 883q-10 10 -26 9t-26 -15l-294 -339l-294 339q-10 14 -26 15t-26 -9q-13 -9 -14.5 -25.5t8.5 -25.5l269 -307h-199q-38 -13 -38 -45q0 -18 11.5 -28t26.5 -10h244v-148h-244q-15 0 -26.5 -10t-11.5 -28t11.5 -28t26.5 -10h244v-308q0 -14 12 -26t26 -12t26 12t12 26
v308h244q14 0 26 12t12 26t-12 26t-26 12h-244v148h244q14 0 26 12t12 26t-12 26t-26 12h-199l269 314q10 9 8.5 25.5t-14.5 25.5z" />
    <glyph glyph-name="jiahao1" unicode="&#xe694;" 
d="M1002 322h-468v468q0 9 -6.5 15.5t-15.5 6.5t-15.5 -6.5t-6.5 -15.5v-468h-468q-9 0 -15.5 -6.5t-6.5 -15.5t6.5 -15.5t15.5 -6.5h468v-468q0 -9 6.5 -15.5t15.5 -6.5t15.5 6.5t6.5 15.5v468h468q9 0 15.5 6.5t6.5 15.5t-6.5 15.5t-15.5 6.5z" />
    <glyph glyph-name="jihuaguanli" unicode="&#xe60b;" 
d="M813 591h-360v-38h360v38zM453 470h360v38l-360 1v-39zM353 634h-117q-19 0 -32.5 -13.5t-13.5 -32.5v-103q0 -20 13.5 -33t32.5 -13h117q19 0 32.5 13t13.5 33v103q0 19 -13.5 32.5t-32.5 13.5zM358 485q0 -3 -1.5 -4.5t-3.5 -1.5h-117q-5 0 -5 6v103q0 5 5 5h117
q5 0 5 -5v-103zM453 310l360 -1v39h-360v-38zM453 227l360 -1v39h-360v-38zM353 391h-117q-19 0 -32.5 -13.5t-13.5 -32.5v-104q0 -19 13.5 -32.5t32.5 -13.5h117q19 0 32.5 13.5t13.5 32.5v104q0 19 -13.5 32.5t-32.5 13.5zM358 241q0 -5 -5 -5h-117q-5 0 -5 5v104
q0 2 1.5 3.5t3.5 1.5h117q5 0 5 -5v-104zM453 80h360v39h-360v-39zM453 -3h360v39h-360v-39zM353 161h-117q-19 0 -32.5 -13t-13.5 -33v-103q0 -19 13.5 -32.5t32.5 -13.5h117q19 0 32.5 13.5t13.5 32.5v103q0 20 -13.5 33t-32.5 13zM358 12q0 -5 -5 -5h-117q-5 0 -5 5v103
q0 6 5 6h117q5 0 5 -6v-103z" />
    <glyph glyph-name="xierizongjie" unicode="&#xe63d;" 
d="M256 588q20 0 34 14t14 34v128q0 20 -14 34t-34 14t-34 -14t-14 -34v-128q0 -20 14 -34t34 -14zM768 588q20 0 34 14t14 34v128q0 20 -14 34t-34 14t-34 -14t-14 -34v-128q0 -20 14 -34t34 -14zM976 684h-96v-48q0 -46 -33 -79t-79 -33t-79 33t-33 79v48h-288v-48
q0 -46 -33 -79t-79 -33t-79 33t-33 79v48h-96q-20 0 -34 -14t-14 -34v-800q0 -20 14 -34t34 -14h928q20 0 34 14t14 34v800q0 20 -14 34t-34 14zM928 -116h-832v544h832v-544v0zM663.5 79q-6.5 -8 -16 -12.5t-20.5 -4.5q-20 0 -33 11.5t-15 31.5h-59q0 -22 9 -39.5t24 -29
t34.5 -17t40.5 -5.5q22 -1 41.5 6.5t34.5 22t23.5 34t8.5 41.5q0 20 -6 38.5t-17.5 31.5t-28 21t-38.5 8q-17 0 -31 -5t-26 -17h-1l12 67h120v48h-162l-29 -161h53q9 12 19 18t26 6q12 0 21 -4.5t15.5 -12t10 -17.5t3.5 -21t-3.5 -21t-10 -18zM422 177.5q-9 -8.5 -20 -14.5
l-20 -14q-19 -12 -36 -25t-29.5 -27.5t-19.5 -33.5t-7 -44h213v51h-137q11 15 25 26t29 21t29.5 20t26.5 22t19 28t7 38q0 21 -8 38t-22 29t-32 18t-38 6q-26 0 -46.5 -9t-33.5 -25t-19.5 -37.5t-6.5 -46.5h57q0 12 2 24t7.5 21.5t14.5 15.5t22 6q19 0 31.5 -11.5
t12.5 -33.5q0 -13 -6 -23.5t-15 -19z" />
    <glyph glyph-name="kaoqin" unicode="&#xe60c;" 
d="M682.5 544q24.5 0 43 18.5t18.5 42.5v61q0 24 -18.5 42.5t-43 18.5t-42.5 -18.5t-18 -42.5v-61q0 -24 18 -42.5t42.5 -18.5zM769 641l-1 -32q0 -43 -21 -69.5t-64.5 -26.5t-64.5 26.5t-21 69.5v32h-170v-32q0 -42 -21.5 -69t-64.5 -27t-64 26.5t-21 69.5v32h-128v-31
v-737h30h708h30v737v31h-127zM853 -84h-682v555h682v-555zM341.5 544q24.5 0 42.5 18.5t18 42.5v61q0 24 -18 42.5t-42.5 18.5t-43 -18.5t-18.5 -42.5v-61q0 -24 18.5 -42.5t43 -18.5zM284 304q2 -2 5 -2t5 2l16 16v0l74 77q2 2 2 5t-2 5l-14 13q-2 2 -6 2q-2 0 -4 -2
l-41 -46q-28 -30 -32 -30q-2 0 -10 7l-17 15q-2 3 -5.5 2.5t-5.5 -2.5l-10 -11q-3 -2 -2.5 -5t2.5 -5zM497 304q3 -2 6 -2t5 2l16 16v0l74 77q2 2 2 5t-3 5l-13 13q-2 2 -6 2q-2 0 -4 -2l-41 -46q-28 -30 -32 -30q-2 0 -11 7l-16 15q-3 3 -6 2.5t-5 -2.5l-11 -11
q-2 -2 -1.5 -5t2.5 -5zM704 304q2 -2 5 -2t5 2l16 16v0l74 77q2 2 2 5t-2 5l-13 13q-3 2 -7 2q-2 0 -4 -2l-41 -46q-28 -30 -32 -30q-2 0 -10 7l-17 15q-2 3 -5.5 2.5t-5.5 -2.5l-10 -11q-2 -2 -2 -5t2 -5zM281 151q3 -2 6 -2t5 3l16 16v0l74 77q2 2 2 5t-3 5l-13 13
q-2 2 -6 2q-2 0 -4 -3l-41 -46q-28 -30 -32 -30q-2 0 -11 8l-16 15q-3 2 -6 2t-5 -2l-11 -11q-2 -2 -2 -5t3 -6zM281 -2q3 -2 6 -2t5 3l16 16v0l74 77q2 2 2 5t-3 5l-13 13q-2 2 -6 2q-2 0 -4 -3l-41 -46q-28 -30 -32 -30q-2 0 -11 8l-16 15q-3 2 -6 2t-5 -2l-11 -11
q-2 -2 -2 -5t3 -6zM495 151q3 -2 6 -2t5 3l16 16v0l74 77q2 2 2 5t-3 5l-13 13q-2 2 -6 2q-2 0 -5 -3l-40 -46q-28 -30 -33 -30q-2 0 -10 8l-16 15q-3 2 -6 2t-5 -2l-11 -11q-2 -2 -2 -5t3 -6zM702 151q2 -2 5 -2t5 3l16 16v0l74 77q2 2 2 5t-2 5l-14 13q-2 2 -6 2
q-2 0 -4 -3l-41 -46q-28 -30 -32 -30q-2 0 -11 8l-16 15q-2 2 -5.5 2t-5.5 -2l-10 -11q-3 -2 -2.5 -5t2.5 -6zM713 87h-30v-86h30h24h31v86h-31h-24zM469 87v-31v-55h31h24h31v55v31h-86z" />
    <glyph glyph-name="shijian3" unicode="&#xe6c3;" 
d="M945 471q-36 84 -101 149t-149 101q-88 36 -183 36q-96 0 -183 -36q-84 -36 -149 -101t-101 -149q-36 -88 -36 -183q0 -96 36 -183q36 -84 101 -149t149 -101q88 -36 183 -36q117 0 221 55q57 32 111 40q9 2 14.5 9.5t4 16.5t-9 14.5t-16.5 3.5q-61 -9 -126 -46
q-93 -49 -199 -49q-87 0 -165 33q-77 32 -135.5 91t-91.5 136q-33 78 -33 165t33 166q33 76 91.5 135t135.5 91q78 33 164 33h1q87 0 166 -33q76 -33 135 -91.5t91 -135.5q33 -79 33 -165q0 -72 -23 -139q-22 -65 -64 -120q-6 -7 -5 -16t9 -15q7 -5 16 -4t15 8q46 61 71 133
q25 74 25 153q0 96 -36 183zM533 288q0 -9 -6 -15t-15 -6v0q-9 0 -15 6t-6 15v320q0 9 6 15t15 6v0q9 0 15 -6t6 -15v-320zM693 137q6 -6 6 -15t-6 -15v0q-6 -6 -15 -6t-15 6l-166 166q-6 6 -6 15t6 15v0q6 6 15 6t15 -6z" />
    <glyph glyph-name="yingyong1" unicode="&#xe60d;" 
d="M425 74v0v136h-136q-56 0 -96 -39.5t-40 -96t40 -96.5t96.5 -40t96 40t39.5 96v0zM493 74q0 -84 -59.5 -144t-144 -60t-144.5 60t-60 144.5t60 144t144 59.5h136h68v-68v-136zM607 74v136h136q56 0 96 -39.5t40 -96t-40 -96.5t-96.5 -40t-96 40t-39.5 96zM539 74
q0 -84 59.5 -144t144 -60t144.5 60t60 144.5t-60 144t-144 59.5h-136h-68v-68v-136zM425 528v-136h-136q-56 0 -96 39.5t-40 96t40 96.5t96.5 40t96 -40t39.5 -96zM493 528q0 84 -59.5 144t-144 60t-144.5 -60t-60 -144.5t60 -144t144 -59.5h136h68v68v136zM607 528v-136
h136q56 0 96 39.5t40 96t-40 96.5t-96.5 40t-96 -40t-39.5 -96zM539 528v0q0 84 59.5 144t144 60t144.5 -60t60 -144.5t-60 -144t-144 -59.5h-136h-68v68v136z" />
    <glyph glyph-name="xuanze1" unicode="&#xe685;" horiz-adv-x="1040" 
d="M80 299q0 -87 33 -169t97.5 -146t146.5 -97.5t169 -33.5t169 33.5t146 97.5t97.5 146t33.5 169t-33.5 169t-97.5 146t-146 97.5t-169 33.5t-169 -33.5t-146.5 -97.5t-97.5 -146t-33 -169v0zM175 -52q-71 71 -108 162.5t-37 188.5v0q0 97 37 188.5t108 162.5t162.5 108
t188.5 37t188 -37t162.5 -108.5t108.5 -162.5t37 -188t-37 -188t-108.5 -162.5t-162.5 -108.5t-188 -37v0q-97 0 -188.5 37t-162.5 108v0z" />
    <glyph glyph-name="icon5" unicode="&#xe6ff;" 
d="M101 63h-34v26h33v123h-33v26h33v123h-33v26h33v123h-33v26h33q1 10 1 11v35v35q0 31 20 51t51 20q33 1 276 1q189 0 224 -1q34 0 54 -20t20 -53v-309v-11q7 5 8 5q73 60 110 89q33 27 59 -6q19 -24 24 -30q23 -29 -6 -52q-138 -111 -186 -150q-9 -7 -9 -18v-150
q0 -32 -20 -52t-52 -20h-502q-31 0 -51 20t-20 52v70v10zM127 388q20 -4 28 13q9 18 29.5 24t38.5 -4q19 -9 26 -28.5t-1 -38.5q-13 -31 -48 -32q-16 -1 -29 8t-20 24q-3 8 -10 7h-13v-122q13 -2 16.5 0t9.5 13q12 20 34.5 25t41 -8.5t22 -36.5t-11.5 -40q-19 -23 -47.5 -19
t-41.5 31q-3 7 -6 8h-17v-122q13 -1 16.5 0.5t9.5 12.5q10 17 29 23t38 -2q18 -8 26.5 -26.5t2.5 -37.5q-5 -15 -18 -25t-28 -11q-37 -3 -53 31q-3 7 -6 8h-17l-1 -9v-70q0 -22 12.5 -34.5t33.5 -12.5h502q20 0 32 12.5t12 32.5v129v11q-38 -30 -40 -32q-34 -30 -99 -34
q-17 -1 -25 8.5t-3 25.5q15 61 53 90q20 16 56 45.5t51 40.5q8 7 8 17q0 30 -1 333q0 21 -12.5 33.5t-33.5 12.5h-260h-241q-20 0 -32.5 -12t-12.5 -32v-54v-26q14 -3 17.5 -1.5t9.5 12.5q9 17 27 23.5t36 0.5t27.5 -22.5t6.5 -35.5q-3 -18 -15.5 -30t-30.5 -14
q-16 -2 -31.5 7t-22.5 25q-3 6 -5 7h-19v-122zM664 112q72 58 76 61q141 114 183 147q6 6 6.5 9t-4.5 9l-12 15t-10 12q-8 10 -11 10.5t-12 -7.5q-32 -26 -103 -83.5t-109 -87.5q-2 -1 -44 -36v-1l1 -1l1 -1l1 -1l1 -1v-1l1 -1l1 -1l1 -1l1 -1l1 -1v-1l1 -1l1 -1l1 -1l1 -1
v-1l1 -1l1 -1l1 -1l1 -1l1 -1v-1l1 -1l1 -1l1 -1l1 -1v-1l1 -1l1 -1l1 -1l1 -1v-1l1 -1l1 -1l1 -1l1 -1v-1l1 -1l1 -1l1 -1l1 -1v-1l1 -1l1 -1l1 -1l1 -1v-1zM604 144q-22 -37 -28 -62q29 1 66 14q-18 21 -38 48zM179 212q12 -18 29 -11q8 3 13 10.5t5 15.5q-1 9 -7.5 16
t-15.5 8q-17 3 -23 -12q10 -1 18 -1v-26h-19zM179 361q11 -18 29 -11q8 3 13 10.5t5 15.5q-1 9 -7.5 16t-15.5 8q-17 3 -23 -12q14 -1 18 -1v-26h-19zM179 63q10 -18 28 -12q19 6 19 26q-1 9 -7 16t-15 9q-17 3 -25 -13h19v-26h-19zM179 510q12 -18 30 -11q8 3 13 11t3 16
q-1 9 -7.5 15.5t-14.5 7.5q-18 2 -23 -12q2 0 8.5 -0.5t9.5 -0.5v-26h-19zM501 496v-24q-9 -1 -10 -1h-207q-9 0 -10 1.5t-1 10.5v13h228zM273 287q-2 19 0.5 22.5t20.5 3.5h195h12v-26h-228zM501 103h-228v20q0 3 5 5h6h207h10v-25zM587 449v1l-1 1l-1 1v1l-1 1l-1 1l-1 1
v1l-1 1l-1 1v1l-1 1l-1 1v1l-1 1l-1 1v1l-1 1l-1 1v1l-1 1l-1 1v1l-1 1l-1 1l-1 1v1l-1 1l-1 1v1l-1 1l-1 1v1l-1 1l-1 1v1l-1 1l-1 1v1l-1 1l-1 1v1l-1 1l-1 1v1l-1 1l-1 1v1l-1 1l-1 1v1l-1 1l-1 1v1l-1 1l-1 1l-1 1v1l-1 1l-1 1l-1 2v1l-1 1l-1 1v0l-1 1l-1 1v1l-1 1
l-1 1v1l-1 1l-1 1v1l-1 1l-1 1v1l-1 1l-1 1v1l-1 1l-1 1v1l-1 2q8 5 22 15q9 -14 36 -54q49 69 53 71q4 -3 11.5 -8t9.5 -7q-32 -45 -75 -102zM530 350q9 5 21 15q7 -10 37 -54q9 11 26 35t27 36q11 -8 21 -15q-34 -47 -75 -102q-31 47 -57 85z" />
    <glyph glyph-name="mubiaojihua" unicode="&#xe626;" 
d="M110 -33v723q0 9 7.5 15.5t18.5 6.5h683q11 0 19 -6.5t8 -15.5v-456h36v456q0 24 -18.5 41t-44.5 17h-683q-26 0 -44 -17t-18 -41v-723q0 -24 18 -40.5t44 -16.5h437v35h-437q-11 0 -18.5 6.5t-7.5 15.5zM774.5 198q-72.5 0 -124 -50.5t-51.5 -122t51.5 -122t124 -50.5
t124 50.5t51.5 122t-51.5 122t-124 50.5zM774.5 -111q-57.5 0 -98 40t-40.5 96.5t40.5 97t98 40.5t98.5 -40.5t41 -97t-41 -96.5t-98.5 -40zM327 541h394v-36h-394v36zM327 390h394v-35h-394v35zM327 239h223v-35h-223v35zM208 541h69v-36h-69v36zM208 390h69v-35h-69v35z
M208 239h69v-35h-69v35zM791 116h-36v-109h1v-13h93v36h-58v86z" />
    </font>
</defs>
</svg>
